<svg enable-background="new 0 0 179.9 92.6" viewBox="0 0 179.9 92.6" xmlns="http://www.w3.org/2000/svg"><path d="m0 0h179.9v92.6h-179.9z" fill="none"/><g fill="#c1f370" opacity=".39" transform="translate(70 -97)"><path d="m83.9 126.6c0 2.3-1.9 4.2-4.2 4.2h-32.1c-2.3 0-4.2-1.9-4.2-4.2s1.9-4.2 4.2-4.2h2.3c.2-.2.5-.3.6-.5 1.6-1.6 1.6-4.3 0-5.9-.2-.2-.4-.4-.7-.5h-7.2c-2.3 0-4.2-1.9-4.2-4.2s1.9-4.2 4.2-4.2h23.7c2.3 0 4.2 1.9 4.2 4.2s-1.9 4.2-4.2 4.2h-5.1c-.2.2-.5.3-.6.5-1.6 1.6-1.6 4.3 0 5.9.2.2.4.4.7.5h18.4c2.3 0 4.2 1.8 4.2 4.2z"/><path d="m-5.5 143.4c0-2.3 1.9-4.2 4.2-4.2h3.7c-1.6 2.5-2.8 5.3-3.2 8.4h-.5c-2.3 0-4.2-1.9-4.2-4.2z"/><path d="m30.8 175.5c0 2.3-1.9 4.2-4.2 4.2h-82.4c-2.3 0-4.2-1.9-4.2-4.2s1.9-4.2 4.2-4.2h22.6c.2-.2.5-.3.6-.5 1.6-1.6 1.6-4.3 0-5.9-.2-.2-.4-.4-.7-.5h-3c-2.3 0-4.2-1.9-4.2-4.2s1.9-4.2 4.2-4.2h36.1c2.4 8.6 10.3 15 19.7 15 .4 0 .8 0 1.3-.1.5.2 1.1.4 1.6.4h4.2c2.3 0 4.2 1.9 4.2 4.2z"/><path d="m99.9 143.3c0 2.3-1.9 4.2-4.2 4.2h-24.6c-.2.2-.5.3-.6.5-.8.8-1.2 1.8-1.2 3 0 2.3 1.9 4.2 4.2 4.2h1.4v.7h8.4c2.3 0 4.2 1.9 4.2 4.2s-1.9 4.2-4.2 4.2h-48.6c3.3-3.7 5.3-8.5 5.3-13.8 0-4.2-1.2-8.1-3.4-11.3h59.2c2.3-.1 4.1 1.8 4.1 4.1z"/><path d="m81 107.3h4c1.9 0 3.5 1.6 3.5 3.5s-1.6 3.5-3.5 3.5h-4c-1.9 0-3.5-1.6-3.5-3.5s1.5-3.5 3.5-3.5z"/><path d="m-53 156.3h4c1.9 0 3.5 1.6 3.5 3.5s-1.6 3.5-3.5 3.5h-4c-1.9 0-3.5-1.6-3.5-3.5s1.5-3.5 3.5-3.5z"/></g><circle cx="93.964" cy="17.815" fill="#fff" r="4.5"/><circle cx="93.964" cy="17.815" fill="none" r="3.8" stroke="#b1e066" stroke-width="1.5"/><path d="m164.6 31.7h-2v-2c0-.2-.2-.5-.5-.5h-.5c-.2 0-.5.2-.5.5v2h-2c-.2 0-.5.2-.5.5v.5c0 .2.2.5.5.5h2v2c0 .2.2.5.5.5h.5c.2 0 .5-.2.5-.5v-2h2c.2 0 .5-.2.5-.5v-.5c0-.3-.2-.5-.5-.5z" fill="#addb64"/><circle cx="51.464" cy="46.315" fill="#fff" r="4"/><circle cx="51.464" cy="46.315" fill="none" opacity=".39" r="3.2" stroke="#c1f370" stroke-width="1.5"/><path d="m89.5 33c11.3 0 20.5 9.2 20.5 20.5s-9.2 20.5-20.5 20.5-20.5-9.2-20.5-20.5 9.2-20.5 20.5-20.5z" fill="#befb5e" opacity=".4"/><path d="m86.2 61.3-6.8-6.8c-.4-.4-.4-1.1 0-1.5l1.5-1.5c.4-.4 1.1-.4 1.5 0l4.6 4.6 9.9-9.9c.4-.4 1.1-.4 1.5 0l1.5 1.5c.4.4.4 1.1 0 1.5l-12.2 12.1c-.5.4-1.1.4-1.5 0z" fill="#addb64"/><g fill="none" stroke="#b1e066" stroke-linecap="round" stroke-miterlimit="10" stroke-width="2.5" transform="translate(130 -74)"><path d="m-53.2 142.8c-1.9-1.7-3.5-3.7-4.7-6s-1.9-4.7-2.1-7.2"/><path d="m-46.3 146.9c-1.4-.5-2.7-1.1-3.9-1.8"/><path d="m-19.4 130.6c-.3 2-.9 3.9-1.7 5.7-3.8 8-12.3 12.7-21.2 11.5"/><path d="m-22.2 116.7c2 3.2 3 7 3 10.8"/><path d="m-47.8 108.7c1.2-.5 2.4-.9 3.6-1.2 7.2-1.7 14.7.7 19.7 6.2"/><path d="m-60 125.1c.3-2.3 1-4.6 2-6.7 1.5-3 3.8-5.7 6.6-7.6"/></g></svg>