<svg height="11.71757" viewBox="0 0 15.116934 11.71757" width="15.116934" xmlns="http://www.w3.org/2000/svg" xmlns:xlink="http://www.w3.org/1999/xlink"><clipPath id="a"><path d="m-13.0466-4.3115h40.3427v21.7037h-40.3427zm13.0466 4.3115"/></clipPath><path clip-path="url(#a)" d="m9.9143 4.091c-.0309.0595-.0679.1154-.1118.1665-.0149.0171-.0275.0346-.0526.0313-.0292-.0039-.0252-.0314-.0308-.0501-.0939-.3131-.2344-.6013-.4668-.8357-.3448-.3476-.7652-.5172-1.2549-.5141-.1194.0008-.2393-.0015-.357.0287-.0287.0074-.0518-.0012-.0552-.0374-.0296-.297-.0138-.5891.1071-.8667.1277-.2926.3607-.4646.6581-.5593.0323-.0102.0514-.0033.0604.0353.0403.1725.0516.3443.0111.519-.0134.0588-.0366.0688-.0893.0498-.058-.0208-.1186-.0334-.1772-.0527-.0251-.0083-.0432-.0095-.064.0112-.0236.0237-.0105.0427.0009.0627.1305.2277.2611.4554.3926.6824.0324.0556.0664.0581.1069.0097.171-.2033.3411-.4073.5115-.6114.0134-.0161.0258-.0329.0134-.0579-.0127-.0252-.0301-.0335-.0568-.033-.0697.0012-.1395-.0013-.209.0016-.0396.0017-.0575-.0101-.0545-.0516.0136-.1949-.0031-.3875-.0484-.5776-.0135-.0568.0256-.05.0587-.0498.3675.002.6416.1726.8439.4704.1936.2858.2879.6096.3529.9437.037.1907.0654.3824.0589.5804.0073.2448-.0324.4829-.1481.7046m-.6496.4966c-.1356.0448-.2792.0653-.4239.0626-.1424-.0026-.2784-.0334-.4096-.0877-.0494-.0205-.0532-.0422-.006-.0722.0483-.0308.0945-.0652.1417-.098.0189-.0131.033-.0264.0198-.0529-.0099-.0198-.0176-.0328-.0449-.0363-.2576-.034-.5145-.0708-.7718-.1068-.0656-.0091-.0885.014-.0759.0782.0492.2502.0985.5005.149.7505.0046.0229.0023.0509.0386.06.0378.0094.0511-.0122.069-.0354.0406-.0532.0836-.1049.1242-.1581.0226-.0296.0436-.0401.0831-.0235.2705.1136.554.1421.8431.1131.1063-.0108.2111-.0368.3165-.0568.0243-.0045.0483-.0292.0723-.0028.025.0274.004.0553-.0056.0805-.0843.2278-.241.3987-.434.5386-.2629.1905-.5588.3122-.8671.4064-.1962.06-.3951.1075-.6009.1214-.3686.0248-.7033-.0476-.9639-.3339-.0501-.055-.0889-.118-.1278-.181-.0217-.0352-.0159-.0544.0261-.0675.651-.202 1.0472-.6454 1.2173-1.2977.0494-.1887.0609-.383.0475-.5776-.0027-.039.0074-.0597.0441-.0676.1866-.0406.3728-.0828.5473-.0749.2609-.005.4872.048.6873.1902.2383.1693.3647.4132.4366.6867.06.2284.0576.1797-.132.2426m-2.965.5823c-.049.0153-.0618-.0041-.0713-.0456-.039-.1686-.0374-.3365.0019-.5047.0093-.0402.0293-.0515.0669-.0304.0477.027.0963.0518.1445.078.0202.011.0378.0181.0583-.0018.018-.0176.0213-.0347.0132-.0577-.0844-.2351-.1674-.4706-.2525-.7054-.018-.0498-.0559-.0455-.0923-.021-.0587.0394-.1156.081-.1732.1217-.1464.1034-.2925.2067-.4387.31-.0231.0164-.0485.0283-.037.0676.0102.0349.0374.0333.0608.0384.0791.0174.1587.0324.2383.0476.0403.0077.0522.0268.045.0702-.0346.2105-.0227.4204.0276.627.0151.0623.0031.0797-.0619.0774-.4121-.0147-.6971-.227-.8974-.572-.1614-.278-.2446-.5832-.3004-.8964-.0433-.2433-.0718-.4882-.0442-.7364.0273-.2462.0922-.4768.2592-.6684.0137-.0156.0226-.0421.0491-.0343.0216.0064.0181.0305.0232.0487.1218.4335.3428.8018.7176 1.0632.2047.1427.4328.2342.6784.2832.2117.0422.4234.037.6364.0157.1122-.0112.1125-.009.1135.1013.0004.0456 0 .0912 0 .1368.0046.2622-.035.5146-.1719.7442-.1367.2294-.3428.3649-.593.4432m-1.0525-3.0181c.2806-.1011.5646-.1384.8573-.0571.019.0053.0411.0075.0481.0258.0106.027-.0187.0342-.0323.0492-.0194.0212-.0393.0326-.0252.0751.0146.0435.1304.0246.1539.0264.2556.0193.4163.0361.672.0527.059.0039.0804-.025.0626-.0846-.0747-.251-.1499-.5018-.2261-.7522-.007-.0227-.0072-.0526-.0455-.0553-.0342-.0024-.046.019-.0602.041-.0588.0901-.1201.1787-.1755.2709-.0291.0481-.0596.0558-.1123.0392-.1885-.0592-.3824-.0864-.5798-.0761-.1504.008-.3002.0246-.4463.0649-.0269.0075-.0611.0237-.0805.0027-.0213-.0232.0044-.0544.0147-.0795.104-.2535.2912-.4343.5179-.5772.3236-.2043.679-.3301 1.0503-.4164.2046-.0477.4126-.064.6204-.0436.3357.0329.5993.1921.78.4818.035.0559-.002.0634-.0402.0757-.2102.0674-.4061.1617-.5801.3-.3383.2688-.5414.618-.6274 1.0385-.0365.1775-.0418.3572-.0277.5369.0048.0613-.019.0864-.0727.0968-.1737.0337-.3465.0741-.5035.0655-.2955.0065-.5477-.0567-.7623-.2354-.1849-.1541-.2874-.3604-.3614-.5835-.0239-.0721-.0403-.1464-.0498-.2222-.004-.0308-.0012-.048.0317-.0599m5.4087.6774c-.0659-.4568-.2111-.8776-.5348-1.2197-.3825-.4043-.8528-.595-1.4093-.5584-.0773.0051-.1083-.0166-.1398-.0816-.1176-.242-.2789-.4513-.4957-.6135-.2966-.2222-.6302-.3429-.9511-.3517-.1614-.0098-.272-.0029-.3812.0106-.2711.0338-.5307.1123-.7784.227-.3434.1592-.6287.3875-.8343.7094-.1708.2675-.2669.5585-.2803.8757-.0019.046-.0201.0725-.059.0957-.3519.2115-.5893.5159-.7263.9011-.1205.3385-.1256.6848-.0716 1.035.0652.4235.2103.8127.5036 1.1342.2299.2517.5043.4343.8371.5248.1927.0524.387.0763.586.0561.0649-.0066.1046.0049.138.0751.1674.3513.4236.6211.7716.7997.2704.1388.5602.2069.8623.2021.2981-.0045.5852-.0769.8618-.1876.4125-.1651.7533-.419.9862-.8041.1458-.2407.235-.4995.2503-.7829.0033-.0596-.015-.1284.0549-.1722.358-.2246.6002-.542.7362-.9399.1042-.3046.1196-.6167.0738-.935" fill="#ed1c24"/><g fill="#2056ae"><path clip-path="url(#a)" d="m.1478 11.2363c.0582.0288.1229.0431.1945.0431.1743 0 .2614-.1047.2614-.3143 0-.1828-.0866-.2743-.2599-.2743-.0746 0-.1399.0064-.196.0191zm-.1478-.6342c.1114-.0227.2266-.0343.3454-.0343.2694 0 .4038.133.4038.3988 0 .2938-.1354.4407-.4061.4407-.0672 0-.1323-.0133-.1953-.0399v.3439h-.1478z"/><path clip-path="url(#a)" d="m1.2499 11.0155c-.1284 0-.1927.0453-.1927.136s.0506.136.1519.136c.1022 0 .1889-.0273.2599-.0816v-.1743c-.0732-.0108-.1461-.0161-.2191-.0161m-.3407.1384c0-.1722.1137-.2583.3407-.2583.0731 0 .146.0054.2192.016v-.0791c0-.0966-.0755-.1449-.2265-.1449-.0863 0-.1747.0134-.2654.04v-.1199c.0907-.0266.1791-.0399.2654-.0399.2495 0 .3743.0869.3743.2604v.5791h-.0832l-.0512-.083c-.0836.0553-.1748.083-.2734.083-.1999 0-.3-.0845-.3-.2534"/><path clip-path="url(#a)" d="m1.7569 10.5678h.1606l.2376.6556.2455-.6556h.1567l-.3487.8644c-.0619.1524-.1546.2477-.2783.2854l-.0569-.1047c.0939-.0411.1621-.1079.2048-.2007z"/><path clip-path="url(#a)" d="m3.66 10.7389c-.0596-.0289-.128-.0433-.2046-.0433-.169 0-.2536.0899-.2536.2697 0 .2127.0845.3191.2536.3191.0767 0 .145-.0105.2046-.0313zm.1479.6181c-.1018.0334-.2274.0503-.3766.0503-.2501 0-.3752-.1454-.3752-.4364 0-.2689.1328-.4031.3983-.4031.0726 0 .141.0133.2056.04v-.3439h.148z"/><path clip-path="url(#a)" d="m4.2116 11.4073h-.1479v-.8395h.1479zm0-1.0034h-.1479v-.1401h.1479z"/><path clip-path="url(#a)" d="m4.4676 11.4073v-.8395h.0998l.0266.1071c.0733-.0714.162-.1071.2653-.1071v.1231c-.1002 0-.1814.0354-.2439.1062l.0001.6102z"/><path clip-path="url(#a)" d="m5.1154 10.9068h.4542c-.0032-.1471-.0753-.2207-.216-.2207-.1493 0-.2286.0736-.2382.2207m.2382-.339c.2388 0 .3583.1181.3583.3541 0 .0336-.0024.0695-.0073.108h-.5892c0 .1716.1002.2576.3006.2576.0954 0 .1802-.0107.2542-.0321v.1199c-.074.0214-.1641.032-.2702.032-.2884 0-.4327-.1431-.4327-.4294 0-.2735.1288-.4101.3862-.4101"/><path clip-path="url(#a)" d="m6.5425 11.3834c-.0691.0159-.1439.0239-.2239.0239-.2985 0-.4478-.1452-.4478-.4358 0-.2691.1493-.4037.4478-.4037.08 0 .1548.008.2239.0239v.1201c-.0691-.0162-.1465-.0241-.2317-.0241-.1946 0-.2919.0948-.2919.2839 0 .2106.0973.3159.2919.3159.0852 0 .1626-.008.2317-.0241z"/><path clip-path="url(#a)" d="m6.7306 10.4318h.0927l.0321.136h.2271v.1198h-.204v.4823c0 .0782.0338.1175.1015.1175h.1025v.1199h-.1409c-.1407 0-.211-.0753-.211-.2262z"/><path clip-path="url(#a)" d="m7.67 11.4073v-.8803c0-.2031.1152-.3047.3454-.3047.0635 0 .1232.0106.1791.0321v.1199c-.0526-.0213-.1127-.032-.1798-.032-.1311 0-.1968.0595-.1968.1782l.0001.0473h.2599v.1198h-.2599v.7197z"/><path clip-path="url(#a)" d="m8.2386 11.4073v-.8395h.0999l.0266.1071c.0733-.0714.162-.1071.2652-.1071v.1231c-.1003 0-.1815.0354-.2438.1062v.6102z"/><path clip-path="url(#a)" d="m9.1383 11.2875c.1678 0 .2519-.101.2519-.3031 0-.1978-.0841-.2967-.2519-.2967-.1681 0-.2517.0989-.2517.2967 0 .2021.0836.3031.2517.3031m-.3999-.2999c0-.2798.1333-.4198.3999-.4198.2665 0 .3997.1399.3997.4198 0 .2793-.1332.419-.3997.419-.2655 0-.3987-.1397-.3999-.419"/><path clip-path="url(#a)" d="m9.738 11.4073v-.8395h.0999l.0249.1054c.0806-.0703.1681-.1054.2631-.1054.1215 0 .2043.0383.2487.1151.0913-.0768.1836-.1151.2776-.1151.1929 0 .2893.1063.2893.3192l-.0002.5203h-.1479v-.5284c0-.1253-.0527-.188-.1584-.188-.0789 0-.1525.0362-.2214.1088v.6076h-.1479v-.526c0-.127-.0522-.1904-.1568-.1904-.0831 0-.1574.0362-.223.1088v.6076z"/><path clip-path="url(#a)" d="m11.729 11.261c.0485.0156.1073.0233.1767.0233.1866 0 .2799-.1064.2799-.3191 0-.1797-.0845-.2697-.2535-.2697-.0766.0001-.1444.0145-.2031.0434zm-.1479-.9972h.1479v.3439c.0634-.0266.1314-.0399.204-.0399.2656 0 .3983.1342.3983.4031 0 .291-.1395.4364-.4183.4364-.1206 0-.231-.0116-.3319-.0342z"/><path clip-path="url(#a)" d="m12.8316 11.0155c-.1284 0-.1925.0453-.1925.136s.0506.136.1519.136c.1023 0 .189-.0273.2598-.0816v-.1743c-.0731-.0108-.1461-.0161-.2192-.0161m-.3407.1384c0-.1722.1137-.2583.3407-.2583.0731 0 .1461.0054.2192.016v-.0791c0-.0966-.0754-.1449-.2263-.1449-.0863 0-.1748.0134-.2654.04v-.1199c.0906-.0266.1791-.0399.2654-.0399.2496 0 .3743.0869.3743.2604v.5791h-.0832l-.0513-.083c-.0836.0553-.1746.083-.2733.083-.1998 0-.3-.0845-.3-.2534"/><path clip-path="url(#a)" d="m13.4386 11.4073v-.8395h.1l.0265.1071c.0857-.0714.1802-.1071.283-.1071.2096 0 .3143.1043.3143.3127l-.0001.5268h-.148v-.5292c0-.1248-.062-.1872-.1863-.1872-.0848 0-.1652.0354-.2415.1062l.0001.6102z"/><path clip-path="url(#a)" d="m14.5584 11.4073h-.1481v-1.1434h.1481z"/><path clip-path="url(#a)" d="m15.1098 10.5678-.3214.3959.3285.4428h-.1817l-.2911-.4035v-.0657l.2956-.3695z"/><path clip-path="url(#a)" d="m1.2742 8.9617c.0379 0 .0511.0379.0362.0933-.05.1867-.3067.5135-.7239.5135-.4288 0-.6378-.2217-.526-.6389.1219-.4551.4412-.6884.765-.6884.2655 0 .3053.1779.2646.3296-.0273.1021-.1187.1604-.1829.1604-.07 0-.0782-.035-.0782-.035s.0292-.0437.0464-.1079c.0352-.1312-.0221-.2334-.1272-.2334-.1808 0-.2989.1576-.4145.5893-.0938.3501.0324.5106.2832.5106.2597 0 .5236-.1576.6088-.4755 0 0 .0076-.0175.0484-.0175"/><path clip-path="url(#a)" d="m1.7551 8.5066c-.068.2538.0937.5105.3367.5834.0177-.0554.0379-.1195.0566-.1896.1055-.3938.082-.5455-.1602-.5455-.0992 0-.2057.0496-.2331.1517m-.044.9481c.1545 0 .2536-.0759.3334-.2538-.2448-.0555-.4184-.2567-.4562-.4638-.0162.0496-.031.105-.0467.1633-.1063.3968-.0552.5543.1695.5543m-.0305.1138c-.3209 0-.5334-.2305-.4162-.6681.1134-.4229.4159-.6592.7572-.6592.3239 0 .5203.2246.4038.6592-.0946.353-.3832.6681-.7448.6681"/><path clip-path="url(#a)" d="m4.2135 8.8683c.0233 0 .0447.0293.0111.1546-.0868.3239-.2921.5455-.5517.5455-.2946 0-.3799-.2042-.2908-.5367l.0914-.3413c.0688-.2567.023-.3472-.082-.3472-.1779 0-.3928.1488-.5367.6855l-.1337.4988s-.04.0409-.1217.0409c-.0788 0-.1376-.0525-.104-.1779l.297-1.1085s.0401-.0408.1218-.0408c.0788 0 .1391.0467.093.2187.1164-.14.2629-.2187.4467-.2187.2451 0 .372.1575.2899.4638l-.111.4143c-.061.2275-.0112.3355.1055.3355.1313 0 .3063-.1197.4267-.5689 0 0 .0076-.0176.0484-.0176"/><path clip-path="url(#a)" d="m5.7539 8.8683c.0233 0 .0447.0293.0111.1546-.0868.3239-.2921.5455-.5517.5455-.2946 0-.3799-.2042-.2908-.5367l.0914-.3413c.0688-.2567.023-.3472-.082-.3472-.1779 0-.3928.1488-.5367.6855l-.1337.4988s-.0401.0409-.1217.0409c-.0788 0-.1376-.0525-.104-.1779l.297-1.1085s.0402-.0408.1218-.0408c.0788 0 .1391.0467.093.2187.1164-.14.263-.2187.4467-.2187.2451 0 .372.1575.2899.4638l-.111.4143c-.061.2275-.0112.3355.1055.3355.1313 0 .3063-.1197.4267-.5689 0 0 .0076-.0176.0484-.0176"/><path clip-path="url(#a)" d="m5.9686 8.9705c.2025-.0263.4784-.1195.5487-.3822.0406-.1517-.0075-.2334-.1271-.2334-.1808 0-.299.1576-.4146.5893zm.9632-.0672c.0379 0 .0511.038.0362.0934-.0656.245-.3224.5717-.7396.5717-.4288 0-.6378-.2217-.526-.6388.1219-.4551.4412-.6884.765-.6884.2655 0 .3053.1779.2647.3296-.0782.2917-.4044.5076-.7837.5076-.0308.2567.0947.3764.3105.3764.2305 0 .5236-.1576.6244-.5338 0 0 .0077-.0176.0485-.0176"/><path clip-path="url(#a)" d="m8.1005 8.9617c.0379 0 .0511.0379.0363.0933-.0501.1867-.3069.5135-.724.5135-.4288 0-.6378-.2217-.526-.6389.1219-.4551.4412-.6884.7649-.6884.2656 0 .3054.1779.2648.3296-.0274.1021-.1188.1604-.1831.1604-.07 0-.0781-.035-.0781-.035s.0291-.0437.0464-.1079c.0351-.1312-.0221-.2334-.1271-.2334-.1809 0-.299.1576-.4146.5893-.0938.3501.0324.5106.2833.5106.2597 0 .5236-.1576.6087-.4755 0 0 .0076-.0175.0485-.0175"/><path clip-path="url(#a)" d="m8.477 8.3841-.1968.7352c-.061.2275.0705.3355.2134.3355.2363 0 .3939-.1634.5026-.5689 0 0 .0104-.0175.0483-.0175.0234 0 .0447.0293.0111.1546-.0773.2888-.2804.5456-.6276.5456-.312 0-.4879-.1605-.394-.5106l.2868-1.0706c.0337-.1254.1206-.178.1995-.178.0817 0 .0998.0409.0998.0409l-.1156.4317h.3997c.0846 0 .0906.0321.0717.1021z"/></g><path clip-path="url(#a)" d="m10.2715 9.5685h-.5496v-2.844h.5497z" fill="#ed1c24"/><path clip-path="url(#a)" d="m11.8737 7.9458c.1465 0 .2608-.0335.3429-.1007s.1232-.1666.1232-.2982c0-.2619-.1684-.3929-.5049-.3929h-.3746v.7918zm.1364-1.2213c.2659 0 .482.077.6484.231.1662.154.2492.3525.2492.5955 0 .2457-.0841.4444-.2523.5965-.1684.1519-.3902.228-.6658.228h-.5293v1.193h-.5496v-2.844z" fill="#ed1c24"/><path clip-path="url(#a)" d="m14.1698 6.6878c.2771 0 .5436.0692.8001.2077v.4885c-.2945-.1778-.5557-.2666-.7836-.2666-.1385 0-.2468.0267-.3248.0803s-.117.1254-.117.2149c0 .1071.0725.2063.2178.2972.0407.0271.1973.103.4702.2279.2334.11.4018.2322.5048.3666.1032.1343.1548.2958.1548.4844 0 .2442-.0878.4413-.2636.5914-.1759.1499-.4034.2249-.683.2249-.1819 0-.3382-.02-.4693-.06-.131-.04-.2779-.1089-.4407-.2067v-.5416c.304.2526.5904.3787.8592.3787.1344 0 .2429-.0292.3257-.0874.0828-.0584.1242-.1357.1242-.2321 0-.1317-.0719-.2389-.2159-.3216-.1193-.0652-.2734-.1433-.462-.2342-.2239-.1018-.3913-.2205-.5019-.3562-.1105-.1357-.1659-.2931-.1659-.4723 0-.2388.089-.4292.2668-.5711.1776-.1417.4124-.2127.7041-.2127" fill="#ed1c24"/></svg>