<svg height="432.35754" viewBox="0 0 615.685 432.35754" width="615.685" xmlns="http://www.w3.org/2000/svg"><path d="m572.375 427.436h-529.066c-21.163 0-38.388-17.225-38.388-38.388l0-345.738c0-21.163 17.225-38.388 38.388-38.388h529.066c21.163 0 38.388 17.225 38.388 38.388v345.738c0 21.163-17.225 38.388-38.388 38.388z" fill="#fff"/><path d="m572.375 432.357h-529.066c-23.869 0-43.31-19.44-43.31-43.31l.001-345.737c0-23.869 19.44-43.31 43.31-43.31h529.066c23.869 0 43.31 19.44 43.31 43.31v345.738c0 23.869-19.44 43.31-43.31 43.31zm-529.065-422.76c-18.456 0-33.466 15.011-33.466 33.466v345.738c0 18.456 15.011 33.466 33.466 33.466h529.066c18.456 0 33.466-15.011 33.466-33.466v-345.491c0-18.456-15.011-33.466-33.466-33.466h-529.066z" fill="#2b3c93"/><path d="m46.509 306.366s86.373-82.928 335.157-53.399c0 0 140.018 11.32 201.537 72.839l-85.143 22.393c0 .246-190.71-126.73-451.552-41.833z" fill="#ed1e26"/><g fill="#293a92"><path d="m45.524 212.857 51.184-3.199c1.23 8.367 3.445 14.765 6.89 18.948 5.66 7.136 13.534 10.581 23.869 10.581 7.628 0 13.534-1.723 17.718-5.414 4.183-3.691 6.152-7.874 6.152-12.55 0-4.429-1.969-8.613-5.906-12.058-3.937-3.691-13.288-6.89-27.561-10.089-23.623-5.414-40.603-12.304-50.446-21.163-10.089-8.859-15.257-19.932-15.257-33.713 0-8.859 2.707-17.471 7.874-25.346 5.168-7.874 13.042-14.272 23.377-18.702 10.335-4.675 24.608-6.89 42.817-6.89 22.393 0 39.372 4.183 50.938 12.55 11.812 8.367 18.702 21.409 20.917 39.618l-50.692 2.953c-1.23-7.874-4.183-13.534-8.613-17.225-4.429-3.691-10.335-5.414-17.964-5.414-6.152 0-11.073 1.23-14.272 3.937s-4.675 5.906-4.675 9.597c0 2.707 1.23 5.168 3.937 7.382 2.461 2.215 8.613 4.429 17.964 6.398 23.623 5.168 40.357 10.089 50.692 15.503 10.089 5.168 17.718 11.566 22.147 19.44 4.675 7.628 6.89 16.241 6.89 25.838 0 11.073-3.199 21.409-9.351 31.006-6.152 9.351-14.765 16.487-25.838 21.409s-25.1 7.382-42.079 7.382c-29.775 0-50.2-5.66-61.519-17.225-11.32-11.566-17.718-26.084-19.194-43.556z"/><path d="m346.969 199.076 47.247 14.272c-3.199 13.288-8.121 24.362-15.011 33.22-6.89 8.859-15.257 15.503-25.346 20.178-10.089 4.429-22.885 6.89-38.634 6.89-18.948 0-34.451-2.707-46.509-8.367-12.058-5.414-22.393-15.257-31.006-29.037s-13.042-31.744-13.042-53.153c0-28.791 7.628-50.938 23.131-66.441 15.257-15.503 37.158-23.131 65.21-23.131 21.901 0 39.126 4.429 51.922 13.288 12.55 8.859 21.901 22.639 28.053 40.849l-47.493 10.581c-1.723-5.414-3.445-9.105-5.168-11.566-2.953-4.183-6.644-7.382-11.073-9.597s-9.351-3.445-14.519-3.445c-12.304 0-21.655 4.922-28.053 14.765-4.922 7.382-7.382 18.702-7.382 34.451 0 19.44 2.953 32.482 8.859 39.864 5.906 7.136 14.026 10.827 24.854 10.827 10.335 0 18.21-2.953 23.377-8.613 4.429-6.398 8.367-14.765 10.581-25.838z"/><path d="m408.242 95.97h163.887v43.063l-55.121.001v131.405h-53.891v-131.405h-54.875z"/></g></svg>