<svg enable-background="new 0 0 32 32" viewBox="0 0 32 32" xmlns="http://www.w3.org/2000/svg"><path d="m0 0h32v32h-32z" fill="none"/><path d="m30.2 15.6s.1-4.3-2.8-6.9c0 0-1.6-2.1-5.6-1.9-.8-1.8-2.2-3.2-4.1-3.9-.4-.1-.7-.2-1.1-.2-.7-.1-1.4-.1-2.1 0-2.5.1-5 1.3-6.7 3.3-1 1.1-1.6 2.7-1.5 4.2 0 0-5.3 2.8-3.3 9.8.6 2 1.9 3.6 3.8 4.6 1.3.6 2.8.8 4.3.6.8 1.7 2.1 3 3.8 3.7 2.3.8 4.8.7 7.1-.2 1.8-.7 3.2-2 3.9-3.8.5-1 .8-2 .8-3.1 2.2-1.3 3.5-3.7 3.5-6.2zm-18.7-3.5h3.4c.1 0 .2-.1.2-.2l-1-3.2c0-.1-.1-.1-.2-.1 0 0 0 0-.1 0l-1.1 1.4c-1.4-.5-3-.6-4.5-.1.3-1.3 1.1-2.4 2.2-3.1.7-.5 1.4-.8 2.2-1 1.5-.4 3-.6 4.6-.4 1.1.2 2.2.9 2.8 1.9-1.2.5-2.3 1.2-3.3 2.2-.3.4-.6.8-.9 1.2-.6 1-.9 2.1-1 3.3v1.4c-.7.5-1.6.7-2.5.6-1.6-.2-3-1.1-3.8-2.6-.3-.5-.5-1.1-.7-1.6 1.1-.6 2.5-.7 3.7-.4l-.1.6s.1.1.1.1zm.7 11.5-.1-2.2 1 .1c.1 0 .2-.1.1-.2l-1.3-3c-.1-.1-.1-.1-.2-.1l-2.7 1.9c-.1.1-.1.2 0 .2h.1l1.4.4v2.6c-.8 0-1.6-.2-2.2-.6s-1.1-1-1.5-1.6c-.8-1.2-1.2-2.6-1.3-4.1-.2-3.6 1.2-5.1 1.2-5.1 1.1 6.6 8.6 5.6 8.6 5.6.5 5.1-3.1 6.1-3.1 6.1zm9.4-3.4-3.3-.5c-.1 0-.1.1-.1.1l.5 3.3c0 .1.1.1.2.1l.9-.9c.8.6 1.8.8 2.8.7.8 0 1.6-.1 2.3-.3 0 0-.3 2.9-5.3 4.1 0 0-4.8 1-6.6-1.8 2-.8 3.6-2.4 4.6-4.3.4-1.1.6-2.4.6-3.6.9-.3 1.9-.5 2.9-.4 1.2.1 2.3.6 3 1.6.6.7 1 1.5 1.1 2.3 0 0-1.3 1-3.9.5l.5-.8c-.1 0-.2 0-.2-.1zm5.9-5.8c0 4.3-1 5.4-1 5.4-.4-2.6-3.1-4.4-3.1-4.4-1.7-1-3.7-1.4-5.6-1.1-.1-.6-.1-1.2-.1-1.8.1-.8.3-1.6.7-2.3.5-.9 1.4-1.5 2.4-1.7l.1 2h-1.1c-.1 0-.1.1-.1.1l1.7 3.2c0 .1.1.1.2 0l2.3-2.8c.1-.1 0-.1-.1-.2l-1.2-.2v-2.3c1 .1 2 .5 2.8 1.2 2.1 1.6 2.1 4.9 2.1 4.9z" fill="#5c2d91"/></svg>