<svg enable-background="new 0 0 32 32" viewBox="0 0 32 32" xmlns="http://www.w3.org/2000/svg"><path d="m0 0h32v32h-32z" fill="none"/><path d="m23.95001 6.64001v5.01996c0 .54004-.41003.95001-.95001.95001s-.94-.40997-.94-.95001v-5.01996c0-.5-.37-.87-.87-.87h-10.39001c-.51001 0-.87.35999-.87.87v.60999c0 .53998-.40997.94-.95001.94-.53998 0-.94-.40002-.94-.94v-.60999c0-1.52001 1.24005-2.76001 2.76001-2.76001h10.39001c1.52002 0 2.76001 1.24 2.76001 2.76001z" fill="#5c2d91"/><path d="m8.91688 22.91092v2.42337c0 1.03859.77894 1.81753 1.81753 1.81753h10.38587c1.03859 0 1.81753-.77894 1.81753-1.81753v-2.42337z" fill="#610ac3" opacity=".2"/><g fill="#5c2d91"><path d="m22.94 20.34998c-.53998 0-.95001.40002-.95001.94v.70001h-12.14996v-5.39996c0-.54004-.41003-.94-.95001-.94-.54004 0-.94.5-.94.94v6.48999c0 .08997.01001.14996.01996.17999v2.09998c0 1.52002 1.24005 2.76001 2.76001 2.76001h10.39001c.78998 0 1.53998-.32001 2.07001-.88.48999-.53998.73999-1.20996.69-1.88v-4.07001c-.00001-.53999-.40003-.94001-.94001-.94001zm-1.82 5.79003h-10.39002c-.51001 0-.87-.35004-.87-.87v-1.47003h12.13v1.47003c.00001.51997-.35998.87-.86998.87z"/><path d="m17.87468 25.01405c0 .47601-.35483.82223-.82223.82223h-2.07714c-.4674 0-.82223-.34622-.82223-.82223 0-.46734.35483-.82223.82223-.82223h2.07714c.4674.00001.82223.35489.82223.82223z"/><path d="m15.22998 10.89001-3.07001-2.28003c-.09998-.03998-.42999-.19-.69995-.19-.72003 0-1.19.56-1.27002 1.12h-2.20001c-.98999 0-1.78998.80005-1.78998 1.79004v1.13c0 .98999.79999 1.78998 1.78998 1.78998h2.20001c.08002.67999.70001 1.13 1.27002 1.13.17999 0 .51996 0 .73999-.22998l3.06-2.27002.27002-.28003.01996-.01996c.33001-.55999.19-1.29003-.32001-1.69zm-7.52997.52997c0-.13.15997-.28998.29999-.28998l2.94-.08002c.37 0 .72998-.34998.73999-.72998l2.23999 1.62-2.23999 1.62c-.01001-.37-.37-.72998-.73999-.72998h-2.95001c-.13 0-.28998-.16003-.28998-.29004z"/><path d="m24.01001 14.10999h-2.20001c-.08002-.56-.54999-1.13-1.27002-1.13-.26996 0-.59998.15002-.71997.21002l-3.04999 2.26001c-.51001.40997-.65002 1.14001-.32001 1.69l.31.32001 3.02997 2.23999c.22003.23999.57001.23999.75.23999.57001 0 1.19-.45001 1.27002-1.13h2.20001c.98999 0 1.78998-.79999 1.78998-1.78998v-1.13c0-.98006-.79999-1.78004-1.78998-1.78004zm0 3.29003h-2.95001c-.37 0-.72998.34998-.73999.71997l-2.23999-1.62 2.23999-1.62c.01001.38.37.72998.73999.72998l2.95001.09003c.13 0 .28998.14996.28998.27997v1.13c0 .13002-.15998.29005-.28998.29005z"/></g></svg>