<svg enable-background="new 0 0 32 32" viewBox="0 0 32 32" xmlns="http://www.w3.org/2000/svg"><path d="m0 0h32v32h-32z" fill="none"/><path d="m19.95 12.09001c1.5-2.2.8-5.2-1.4-6.7s-5.2-.8-6.7 1.4c-1 1.6-1 3.7 0 5.3z" fill="#610ac3" opacity=".2"/><path d="m26.63599 22.06135h-5.4c-1.4 0-2.6-1.1-2.6-2.6 0-1.4 1.1-2.6 2.6-2.6h5.4z" fill="#610ac3" opacity=".2"/><path d="m26.54999 16.14001h-.41999v-3.06c0-2.59003-2.08002-4.70001-4.66998-4.75-.22003-1.12-.75-2.13-1.53003-2.92004-2.29999-2.19995-5.96002-2.19995-8.15997 0-.80005.80005-1.33002 1.82001-1.54004 2.96003h-.97998c-2.62 0-4.75 2.13-4.75 4.75v10.37c0 2.62 2.13 4.75 4.75 4.75h14.20001c1.42999 0 2.64001-1.21997 2.64001-2.64996v-2.56h.45996c.51001 0 .95001-.38.95001-.84003v-5.09998c.00001-.54004-.40996-.95002-.95-.95002zm-5.39997 1.81h4.44v3.28998h-4.44c-.96002 0-1.65002-.69-1.65002-1.64996 0-.91004.73999-1.64002 1.65002-1.64002zm.38001-7.81c.79999.07001 1.54999.46997 2.06 1.10999-.05005 0-.09003-.01001-.14001-.01001h-2.15002c.11998-.36999.18999-.72998.23003-1.09998zm-8.40003-3.36999c.72998-.73004 1.71002-1.13 2.77002-1.13s2.03998.39996 2.76996 1.13c.48004.46997.82001 1.04999 1 1.71997.14001.47003.17999.98999.12 1.48999-.06.46002-.19.88-.38995 1.26001h-6.99005c-.65998-1.53998-.37995-3.28998.72002-4.46997zm-3.78002 3.38995h.82001c.04999.40002.13.76001.23004 1.08002h-1.15003c-.95001 0-1.85999.28003-2.65002.81.43005-1.13001 1.52002-1.89002 2.75-1.89002zm14.86004 15.53003c0 .35999-.29004.76001-.76001.76001h-14.20001c-1.65997 0-2.96002-1.29999-2.96002-2.96002v-7.5c0-.26001.04004-.52002.11005-.77997.33997-1.28003 1.50995-2.17999 2.84998-2.17999h14.20001c.45996 0 .76001.29999.76001.75995v2.35004h-3.06c-1.90002 0-3.44 1.53998-3.44 3.45001 0 1.89996 1.53998 3.44 3.44 3.44h3.06s0 2.65997-.00001 2.65997z" fill="#5c2d91"/></svg>