<svg enable-background="new 0 0 855.7 493.8" viewBox="130.4 130.39 594.9 233.13" xmlns="http://www.w3.org/2000/svg"><g fill="#5c2d91"><path d="m398.4 138.4c-2.3-2.7-5.6-4.1-9.2-4h-207c-3.6-.1-6.9 1.4-9.2 4-2.4 2.5-3.5 6.1-2.9 9.6l14.8 142c.9 8.4 7.8 18.8 14.8 23.2l73.2 43.1c8.2 4.3 17.9 4.3 26 0l73.2-43.1c7.3-4 13.8-14.8 14.8-23.2l14.8-142c.1-3.4-1-6.9-3.3-9.6zm-60 157.3c-6 4-14.1 2.4-18.1-3.5l-37.5-54.9-22.6 22.7v24.9c0 7.1-5.9 13-13 13s-13-5.8-13-13v-108.3c0-7.1 5.9-13 13-13s13 5.8 13 13v46.7l55.8-55.8c5.1-5.1 13.4-5.1 18.4 0s5.1 13.4 0 18.4l-32.8 32.8c.1.1.1.2.2.3l40 58.5c4.1 6.1 2.6 14.1-3.4 18.2z"/><path d="m721.3 185.8v90.6c0 12.2-9.9 22.2-22.2 22.2h-301.8l.8-9.7h301c6.9-.1 12.4-5.6 12.6-12.6v-90.8c-.1-6.9-5.6-12.4-12.6-12.6h-288.8l.8-9.7h288c12.3.2 22.3 10.3 22.2 22.6z"/><path d="m435.3 206.4c.1-1-.6-2-1.6-2.1-.1 0-.2 0-.5 0h-4v-8.1h9.2c4.4 0 6.3 1.2 6.3 5.8v32.2h4.4c2 .1 3.8-.7 5.2-2.1l11.5-15.9h10.7l-13.3 18.2c-1 1.5-2.3 2.8-3.8 3.8v.2s1.7.6 3.2 3.8l7.3 13.3c.9 1.5 1.7 2.1 4.4 2.1h2.9v8.1h-6.9c-4.6 0-6.1-.9-8.1-4.6l-9-16.5c-1.2-1.7-3.2-2.1-5-2.1h-3.8v23.2h-9.6z"/><path d="m487 206.8c.1-1-.6-2-1.6-2.1-.1 0-.2 0-.5 0h-4v-8.1h9.2c4.4 0 6.3 1.7 6.3 6.1v19.4c0 1.4-.1 2.8-.2 4h.2c2.1-5 8.4-10.9 18.2-10.9 11.5 0 16.8 6.3 16.8 19.1v21.3c-.1 1 .6 2 1.6 2.1h.3 4v8.1h-9.2c-4.4 0-6.3-1.7-6.3-6.3v-23.2c0-6.9-1.5-12.4-9.2-12.4-7.4.1-13.7 5.1-15.6 12.1-.6 2.2-.9 4.4-.9 6.7v23.2h-9.6z"/><path d="m563.3 259.3c8.1 0 13.3-8.4 13.3-15.7v-1.7h-2.3c-7.3 0-19.9.2-19.9 9.6-.3 4 2.8 7.8 8.9 7.8zm11-24.3h2.1v-.6c0-8.6-3.2-11.9-10.9-11.9-2.3 0-8.1.6-8.1 3.8v2.9h-9v-5c0-8.1 12.4-9.2 17.1-9.2 15.9 0 20.3 8.4 20.3 19.4v21.2c-.1 1 .6 2 1.7 2.1h.3 4v8h-9c-4.4 0-6.1-2.1-6.1-5.8 0-.9.1-2 .2-2.9h-.2c-2.9 6-9 9.9-15.6 9.8-8.4 0-16.8-5.2-16.8-15 .2-15.6 21.9-16.8 30-16.8z"/><path d="m599.7 205.1h-4.3v-8.1h9.2c4.4 0 6.3 1.7 6.3 6.3v52.3c-.1 1 .6 2 1.6 2.1h.3 4v8.1h-9.2c-4.4 0-6.3-1.7-6.3-6.3v-52.3c.2-.9-.3-1.7-1.3-2 .1-.1 0-.1-.3-.1z"/><path d="m627.8 223.8h-6.3v-7.5h6.7v-13.8h9.2v13.8h11.9v7.5h-11.9v22.6c0 9.8 6.8 11.3 10.3 11.3h2.5v7.7c-1 .2-2.1.3-3.2.2-6.3 0-18.8-2.1-18.8-18.6v-23.5h-.3v.3z"/><path d="m665.3 196.6h5.9c.7 0 1.3.6 1.3 1.3v7.4c0 .7-.6 1.3-1.3 1.3h-5.9c-.7 0-1.3-.6-1.3-1.3v-7.4c0-.7.6-1.3 1.3-1.3z"/><path d="m663.7 226.4c.1-1-.6-2-1.6-2.1-.1 0-.2 0-.5 0h-3.9v-8.1h9.2c4.4 0 6.3 1.7 6.3 6.3v33.1c-.1 1 .6 2 1.5 2.1h.5 4v8.1h-9.2c-4.4 0-6.3-1.7-6.3-6.3z"/></g><path d="m158.8 172.1-24.4 3.1 9 72.9 23.2-2.7z" fill="#f8a51c"/></svg>