<svg height="175" viewBox="0 0 350 175" width="350" xmlns="http://www.w3.org/2000/svg" xmlns:xlink="http://www.w3.org/1999/xlink"><linearGradient id="a" gradientUnits="objectBoundingBox" x1=".5" x2=".5" y1="-.124" y2=".935"><stop offset="0" stop-color="#fff"/><stop offset="1" stop-color="#5ca8de" stop-opacity="0"/></linearGradient><path d="m0 0h350v175h-350z" fill="#fff" opacity="0"/><g transform="translate(-77.204 -337.521)"><path d="m110.693 509.659c-7.485-10.858-13.367-24.445-13.487-39.012s6.826-29.8 17.705-33.4c7.1-2.35 15.038.226 21.623-3.933 8.78-5.547 11.314-20.36 18.54-28.883 11.714-13.815 30.626-6.773 45.508-13.773 14.059-6.613 22.65-24.714 34.515-36.524 16.153-16.079 38.257-19.753 58.156-14.172s37.864 19.532 53.894 35.817c12.241 12.436 24.2 27.707 27.277 47.481 1.265 8.129.974 16.775 3.557 24.361 3.27 9.6 10.578 15.87 14.742 24.871 5.109 11.045 4.7 25.974-1 36.523z" fill="url(#a)" opacity=".6"/><path d="m577.723 551.87-.252-.269a25.846 25.846 0 0 1 -2.665-3.586 20.357 20.357 0 0 1 -1.508-2.865c-.154.066-.334.134-.534.2-.1.039-.22.075-.341.115.7 1.206 1.557 3.967-1.587 4.511a4.878 4.878 0 0 1 -5.658-2.816 27.916 27.916 0 0 1 -3.711.456c-.675.016-1.082-.059-1.079-.256.043-.01 10.205-2.2 12.713-2.7a22.52 22.52 0 0 1 -.914-2.77c-.662-2.567-1.583-4.327-2.531-4.852-.013-.007-.029-.016-.046-.023a8.638 8.638 0 0 0 -.833-.344h-.077l-.18-.089a9.614 9.614 0 0 0 -3.862-.534c-.679-.02-1.475-.043-2.446-.089-.075 0-.144-.007-.216-.016a21.711 21.711 0 0 1 -2.253-.347 23.029 23.029 0 0 1 -2.527-.639 36.51 36.51 0 0 1 -3.8-1.357 9.6 9.6 0 0 1 -1.918-1.131l-.111-.079a.953.953 0 0 1 -.1-.069l-.085-.069-.728-.669-.315-.046c-4.9 2.895-26.705 16.834-18.939 31.275a1.4 1.4 0 0 1 .16.528 2.29 2.29 0 0 1 1.308-.3c1.485.1 3.18 1.334 2.816 6.573a3.18 3.18 0 0 0 2.5 3.528l.167.036.154.089c3.672 2.219 5.888 4.727 6.976 7.891.131.374.246.754.344 1.154l.073.033c1.2.544 2.249.974 3.216 1.318l.177.062c.1.036.207.072.308.1l.508.125a14.461 14.461 0 0 0 1.816.364l.125.016c.052.007.1.016.151.023s.1.016.164.023h.164l.062.029a10.749 10.749 0 0 0 2.036.066c.177-.007.338-.02.5-.029l.039-.023h.164c.026-.007.052-.01.078-.016l.086-.039h.069a5.043 5.043 0 0 0 .6-.246l.21-.1a9.349 9.349 0 0 0 1.695-1.213l.089-.082c.42-.367.856-.777 1.315-1.213a30.91 30.91 0 0 1 6.16-4.783l2.7-1.718c.328-.21.656-.41.984-.607.115-.069.233-.141.354-.21l.134-.082c.459-.275.921-.541 1.377-.8.085-.049.193-.115.311-.18.243-.138.479-.272.711-.406l.551-.315.157-.085a37.76 37.76 0 0 0 5.37-3.518c.118-.1.223-.184.324-.275.181-.157.354-.318.571-.531a10.829 10.829 0 0 0 .911-1.02l.138-.171a7.822 7.822 0 0 0 1.069-1.888l.062-.167c.075-.193.134-.38.19-.574.026-.1.049-.177.066-.256l.049-.161c.056-.134.108-.269.157-.4.033-.082.059-.154.085-.229.1-.282.18-.531.246-.764l.023-.085c.01-.036.023-.075.032-.111.036-.141.069-.279.1-.42.912-4.222-1.55-6.844-4.399-9.883zm-39 18.473 10.045-10.225a.389.389 0 0 1 -.348-.216c-1.469-2.36-3.157-3.055-5.009-3.055a33.657 33.657 0 0 0 -5.937 1.1c2.355-3.766 12.914-1.134 11.295 2.171zm-6.052-5.3c-5.18-.3 5.747-.207 7.3-.508 11.742-9.813 4.467-9.666 2.746-9.718zm7.521-1.528a4 4 0 0 1 -4.3-3c-3.967.938-8.143 1.534-8.763-.243 1.977.692 14.916-1.741 16.133-1.623a6.782 6.782 0 0 0 -1.174.236 2.754 2.754 0 0 1 8.15-5.596zm1.911-8.638a5.511 5.511 0 0 0 -1.013 0c-.324.029-.672.089-1.023.151-1.377.236-2.728.626-4.16.921q-2.115.443-4.259.754a40.386 40.386 0 0 1 -4.334.4 40.437 40.437 0 0 1 4.124-1.393c1.39-.393 2.79-.738 4.2-1.042a23.262 23.262 0 0 1 4.331-.662 10.207 10.207 0 0 1 1.134.026 5.536 5.536 0 0 1 1.134.233 4.4 4.4 0 0 1 1.892 1.18 5.735 5.735 0 0 0 8.02-10.794zm10.1-2.213a12.991 12.991 0 0 1 3.069-1.131 9.919 9.919 0 0 1 3.308-.193 7.315 7.315 0 0 1 3.091 1.092 22.323 22.323 0 0 0 -3.125-.059 19.566 19.566 0 0 0 -2.99.443c-.987.22-1.97.5-2.964.8s-1.993.639-3.056.9a12.55 12.55 0 0 1 12.713-12.078zm.3 12.52a2.37 2.37 0 0 1 .56 2.6 1.7 1.7 0 0 1 -1.527 1.128c.81-1.8.341-4.478-2.056-2.993a2.376 2.376 0 0 0 -.8.846c8.95-8.332 10.298-15.338 13.868-11.807zm-7.15 9.825c3.387-2.714 12.468-3.075 15.517-.443 5.943-11.53-.751-11.058-5.47-9.783z" fill="#fff" transform="translate(-290.615 -130.409)"/><path d="m588.757 561.709c-.029.141-.062.279-.1.42-.01.036-.023.075-.033.112l-.023.085c-.066.233-.144.482-.246.764-.026.075-.052.148-.085.229-.049.128-.1.262-.157.4l-.049.161c-.016.079-.039.157-.066.256-.056.193-.115.38-.19.574l-.062.167a7.822 7.822 0 0 1 -1.069 1.888l-.138.171c-.069.089-.144.18-.22.272a7.719 7.719 0 0 0 .423-.9l.062-.167c.075-.193.134-.38.19-.574.026-.1.049-.177.066-.256l.049-.161c.056-.134.108-.269.157-.4.033-.082.059-.154.085-.229.1-.282.18-.531.246-.764l.023-.085c.01-.036.023-.075.033-.111.036-.141.069-.279.1-.42.908-4.226-1.554-6.849-4.4-9.888l-.252-.269a25.863 25.863 0 0 1 -2.665-3.586 20.36 20.36 0 0 1 -1.508-2.865 1.811 1.811 0 0 1 -.2-.488 22.469 22.469 0 0 1 -.915-2.77c-.662-2.567-1.583-4.327-2.531-4.852-.013-.007-.029-.016-.046-.023a8.628 8.628 0 0 0 -.833-.344h-.066l-.18-.089a9.613 9.613 0 0 0 -3.862-.534c-.679-.02-1.475-.043-2.446-.089-.075 0-.144-.007-.216-.016a21.712 21.712 0 0 1 -2.252-.348 23.012 23.012 0 0 1 -2.528-.639 36.507 36.507 0 0 1 -3.8-1.357 9.6 9.6 0 0 1 -1.918-1.131l-.111-.079a.953.953 0 0 1 -.1-.069l-.085-.069-.728-.669-.315-.046c-2.816 1.662-11.192 6.96-16.352 13.9 5-7.639 14.349-13.559 17.356-15.333l.315.046.728.669.085.069a.953.953 0 0 0 .1.069l.111.079a9.607 9.607 0 0 0 1.918 1.131 36.507 36.507 0 0 0 3.8 1.357 23.012 23.012 0 0 0 2.528.639 21.727 21.727 0 0 0 2.252.347c.072.01.141.013.216.016.97.046 1.767.069 2.446.089a9.614 9.614 0 0 1 3.862.534l.18.089h.066a8.645 8.645 0 0 1 .833.344c.016.007.033.016.046.023.947.525 1.869 2.285 2.531 4.852a22.467 22.467 0 0 0 .915 2.77 1.811 1.811 0 0 0 .2.488 20.36 20.36 0 0 0 1.508 2.865 25.867 25.867 0 0 0 2.665 3.586l.252.269c2.843 3.042 5.308 5.664 4.4 9.89z" fill="#dfe3ee" transform="translate(-297.249 -130.377)"/><path d="m650.23 711.734-.046.066a7.373 7.373 0 0 1 -2.826 2.59c-5.816.688-18.991-.947-20.552-1.147a.006.006 0 0 1 -.01 0 15 15 0 0 1 -3.475-2.226l.072-.121-.108-.066-.026-.01a36.788 36.788 0 0 1 -16.972-18.52l-.01-.023-.472-1.128h-.007c-5.6-13.874.013-27.866.964-30.053a10.843 10.843 0 0 0 1.8-1.265l.62-.544c.338-.308.679-.629 1.033-.967a28.753 28.753 0 0 1 5.832-4.531h.134l.193-.187.184-.1.128-.069.1-.062c.5-.357 1.013-.7 1.515-1.013l.233-.148v-.007c.036-.023.072-.046.112-.069l.134-.085c.315-.2.629-.393.951-.587.111-.066.223-.131.331-.2l.144-.085.092-.056c.416-.249.839-.492 1.282-.744.092-.056.187-.111.279-.164l.718-.41c.184-.1.364-.21.541-.308l.161-.092a39.551 39.551 0 0 0 5.652-3.708c.134-.108.269-.223.374-.321.193-.167.4-.357.646-.6l.026-.026c.3-.3.583-.607.839-.915a.65.65 0 0 1 .288 0c.58.528-.374 4.573-2.478 9.006-.007.016-.016.033-.023.049a24.72 24.72 0 0 1 -8.143 9.284 16.935 16.935 0 0 0 -3.4 3.075l-.19.249-.01.315c-.115 4.613 1.829 9.061 5.947 13.6a.351.351 0 0 0 .033.036l.072.082c.951 1.033 1.99 2.059 3.173 3.121l.613.544c3.239 2.836 6.911 5.462 10.464 8.006 7.176 5.131 13.953 9.979 14.733 14.975a7.226 7.226 0 0 1 -1.665 5.559z" fill="#fff" transform="translate(-340.212 -205.888)"/><path d="m480.407 636.476h-.007a5.273 5.273 0 0 0 -.813.252c-.213-.4-3.28.382-3.28.382-.033 0 .034 1.68.313 1.624a13.989 13.989 0 0 0 -2.246 2.61.914.914 0 0 0 -1-.023c-.1.072-.207.138-.315.2-.062.036-.279.1-.321.161l-.174.059c-.115.039-.236.072-.354.1s-.243.056-.367.079c-.036.007-.075.01-.115.016a.225.225 0 0 0 .023-.007c-.03.007-.062.01-.082.013a7.341 7.341 0 0 1 -.77.046 24.455 24.455 0 0 1 -2.544-.154.392.392 0 0 1 -.02-.036.634.634 0 0 0 -.033-.069s0-.006 0-.009c-.033-.092-.066-.18-.092-.276a3.979 3.979 0 0 1 -.125-.554c0-.03 0-.089 0-.1v.062c0-.016 0-.029 0-.039-.01-.1-.016-.2-.023-.3a7.136 7.136 0 0 1 .029-1.059s0-.01 0-.013v-.01c0-.02.007-.036.01-.056.016-.095.036-.19.056-.288.039-.184.085-.364.138-.544s.111-.357.18-.531a.259.259 0 0 0 .016-.046c.01-.016.013-.029.023-.046l.01-.029c.036-.069.069-.138.1-.21.082-.157.17-.314.266-.465.039-.066.082-.125.128-.187 0 0 .007-.01.01-.013s.007-.01.01-.013c.007 0 .007-.006.007-.006s.007-.007.01-.01a6.409 6.409 0 0 1 .616-.652c.1-.092.207-.177.311-.262a.086.086 0 0 0 .026-.023l.029-.02c.082-.055.161-.111.243-.164.161-.1.328-.2.5-.288.092-.049.187-.1.282-.138a.032.032 0 0 1 .016-.007.024.024 0 0 0 .01 0 .173.173 0 0 1 .023-.01s.007 0 .01-.007a.2.2 0 0 0 .03-.013s0 0 .007 0a1.349 1.349 0 0 1 .131-.046c.016.167.043.334.075.5a.987.987 0 0 0 1.21.685 1.01 1.01 0 0 0 .688-1.209c-.01-.036-.016-.075-.023-.112s-.007-.039-.007-.049c0-.043 0-.079 0-.092-.016-.21-.023-.423-.023-.633q0-.354.03-.708c.01-.124.02-.246.033-.37a.1.1 0 0 1 0-.02c0-.007 0-.01 0-.016s0 0 0 0a.054.054 0 0 1 0-.023s0 0 0 0a.093.093 0 0 1 0-.03.082.082 0 0 0 0-.026c0-.019.007-.039.01-.052a8.07 8.07 0 0 1 .416-1.616l.036-.089a.027.027 0 0 1 .007-.017.017.017 0 0 1 .007-.013.132.132 0 0 1 .01-.033c0-.006.007-.01.007-.013.062-.128.128-.259.2-.384s.131-.216.2-.321a0 0 0 0 1 0 0 .19.19 0 0 0 .023-.033.06.06 0 0 0 .016-.023c.007-.007.01-.01.01-.016.023-.026.046-.059.062-.075a3.492 3.492 0 0 1 .3-.311l.007-.007s.007 0 .013-.007l.007-.007s0 0 .007 0a.15.15 0 0 0 .03-.023c.046-.033.1-.075.111-.082.075-.049.151-.088.229-.131a.025.025 0 0 0 .01 0l.007-.007a.05.05 0 0 0 .02-.006.2.2 0 0 1 .036-.017.718.718 0 0 1 .089-.039c.082-.026.167-.049.252-.072a.866.866 0 0 0 .223-.089 28.591 28.591 0 0 0 4.79 6.705z" fill="#fff" transform="translate(-249.261 -196.412)"/><path d="m468.3 672.12a13.819 13.819 0 0 0 -.482 1.308.955.955 0 0 0 -1.115.439 3.079 3.079 0 0 1 -.285.495c0 .007-.007.01-.01.017s-.007 0-.007.007-.013.016-.02.026 0 0 0 0a.056.056 0 0 0 -.013.016l-.007.007-.01.01s0 0 0 .007c-.026.029-.052.059-.075.089-.1.115-.213.223-.325.331-.056.049-.111.1-.17.147-.02.02-.043.04-.066.059s-.02.016-.03.023l-.043.033c-.007.007-.013.009-.016.016s-.01.01-.013.013c-.1.075-.22.141-.325.207a5.472 5.472 0 0 1 -.541.3c-.072.036-.151.072-.226.108l-.033.013s0 0-.007 0-.026.01-.036.016a.025.025 0 0 1 -.013 0 .025.025 0 0 0 -.013.007c-.007 0-.013 0-.016.007l-.059.02a8.1 8.1 0 0 1 -1.462.4c-.059.01-.118.017-.177.03h-.016a.012.012 0 0 1 -.01 0c-.148.016-.3.029-.439.042-.308.023-.62.033-.931.033-.082 0-.164 0-.246-.007a1.724 1.724 0 0 0 -.22-.013 7.519 7.519 0 0 1 0-.859c.007-.154.023-.3.036-.459v-.013l.01-.059c.016-.1.033-.19.056-.282a4.729 4.729 0 0 1 .151-.561q.044-.138.1-.275a.19.19 0 0 1 .016-.043.161.161 0 0 0 .013-.026c.007-.016.013-.029.016-.036a3.389 3.389 0 0 1 .252-.452 1.76 1.76 0 0 0 .148-.207.439.439 0 0 1 .052-.062 6.849 6.849 0 0 1 .724-.718c.046-.039.092-.078.141-.118a.673.673 0 0 0 .125.046.789.789 0 0 0 .157.026h.033c.023 0 .046 0 .069.007 1.728.147 3.666.449 5.358-.115z" fill="#fff" transform="translate(-244.408 -224.906)"/><path d="m561.767 813.388-49.444.873c4.845-2.849 7.56-7.4 12.864-15.924a44.666 44.666 0 0 0 2.328-4.36c4.822 4.219 10.137 4.311 16.175.282a38.693 38.693 0 0 0 16.772 18.057l.066.062a15.1 15.1 0 0 0 1.239 1.01z" fill="#fff" transform="translate(-279.028 -306.814)"/><path d="m687.94 729.566a9.855 9.855 0 0 1 -3.482 5.019 8.6 8.6 0 0 0 1.111-5.619c-.9-5.812-8.009-10.894-15.53-16.274a131.994 131.994 0 0 1 -10.5-8.055l-.02-.016c-.013-.013-.026-.023-.039-.036l-.262-.266h-.036c-1.147-1.029-2.154-2.016-3.069-3.013-.02-.023-.043-.046-.066-.069a.04.04 0 0 0 -.016-.016l-.026-.033c-3.665-4.039-5.449-7.94-5.445-11.914a18.051 18.051 0 0 1 2.833-2.446 27.3 27.3 0 0 0 8.052-8.734c4.213 4.881 7.96 12.756 10.5 18.09a54.423 54.423 0 0 0 6.357 10.222c5.104 6.509 11.664 15.987 9.638 23.16z" fill="#d6dbe7" transform="translate(-371.945 -228.923)"/><path d="m437.486 670.233c-.456 3.272-.892 5.085-2.914 7.547a41.666 41.666 0 0 1 -7.475 6.74c-1.177.875-3.252 2.344-5.878 4.2-3.049 2.154-6.845 4.839-10.917 7.789-5.475 3.967-7.474 14.835-7.549 21.464 0 .128.243.28-2.762-.921-15.228-12.858 9.413-29.624 19.415-44.484.957-1.793 2.37-6.93 3.4-10.805.026-.016.052-.039.079-.059a4.729 4.729 0 0 0 1.361-1.659 1.067 1.067 0 0 0 .1-.757 1.014 1.014 0 0 0 -.452-.587 1.319 1.319 0 0 0 -.233-.089 13.852 13.852 0 0 1 .482-1.308 4.851 4.851 0 0 0 1.216-.607 1 1 0 0 0 .354-1.344 1.108 1.108 0 0 0 -.344-.331 13.977 13.977 0 0 1 2.246-2.61c.8-.167 1.577-.4 2.36-.616a.994.994 0 0 0 .685-1.21.884.884 0 0 0 -.079-.18 5.305 5.305 0 0 1 .813-.252h.007c.1.108.207.213.311.318-.013.059-.03.118-.043.174-.1.387-.193.724-.275 1.026a6.2 6.2 0 0 0 -.354 3.229c.367 1.76 2.77 5.78 4.881 8.645 1.893 2.569 1.991 3.625 1.565 6.687z" fill="#d6dbe7" transform="translate(-200.266 -210.142)"/><path d="m584.069 593.861a14.947 14.947 0 0 1 -1.815-.121l-.172-.023-.133-.019-.258-.038a16.544 16.544 0 0 1 -2.036-.406l-.591-.15-.231-.078-.158-.055c-1.063-.371-2.215-.84-3.521-1.432l-.042-.02a.983.983 0 0 1 .4-1.879h.237l.217.108c1.186.539 2.234.968 3.2 1.311h.01l.182.067c.092.032.193.066.294.1l.486.12a14.855 14.855 0 0 0 1.838.367l.124.018.154.023.162.023h.174l.061.029a10.93 10.93 0 0 0 2.028.066c.184-.009.352-.019.516-.032l.041-.02h.143l.08-.016.085-.041h.068a4.635 4.635 0 0 0 .6-.245l.208-.1a9.2 9.2 0 0 0 1.691-1.21l.1-.084c.42-.367.854-.778 1.314-1.213a30.964 30.964 0 0 1 6.141-4.772l.2-.2h.059l.093-.1h.183l.067-.036.095-.051c.445-.314.89-.613 1.327-.894l.154-.295h.31l.1-.061.145-.091c.328-.208.655-.408.982-.605.116-.071.24-.144.363-.216l.126-.075c.46-.276.922-.543 1.378-.8.082-.05.19-.114.307-.181.254-.143.5-.282.736-.419l.688-.39a38.049 38.049 0 0 0 5.371-3.516c.117-.1.221-.184.322-.276.226-.195.423-.384.571-.53a10.709 10.709 0 0 0 .919-1.027l.149-.187a7.825 7.825 0 0 0 1.051-1.864l.063-.169c.072-.192.134-.38.188-.576.027-.094.049-.175.068-.257l.049-.154q.083-.206.159-.4c.036-.1.062-.161.085-.227.1-.288.181-.536.245-.763l.025-.091c.009-.036.019-.071.03-.106.036-.142.07-.282.1-.421.906-4.223-1.553-6.847-4.4-9.884l-.254-.271a25.967 25.967 0 0 1 -2.663-3.588 21.381 21.381 0 0 1 -2.627-6.127c-.673-2.605-1.613-4.382-2.578-4.875a.983.983 0 1 1 .894-1.752c1.532.781 2.739 2.845 3.588 6.135a19.438 19.438 0 0 0 2.384 5.565 24.367 24.367 0 0 0 2.438 3.3l.253.27c2.956 3.152 6.013 6.412 4.892 11.634-.034.168-.078.345-.125.526l-.03.109c-.011.042-.023.084-.035.125-.071.254-.163.543-.277.867-.028.08-.06.166-.093.251-.055.145-.105.273-.156.4-.023.091-.047.182-.074.275-.05.183-.111.374-.178.563l-.06.167a9.925 9.925 0 0 1 -1.489 2.662l-.169.238-.04.02a12.874 12.874 0 0 1 -.923 1.014l-.027.027c-.17.167-.4.386-.645.6-.106.1-.238.211-.374.322a39.6 39.6 0 0 1 -5.651 3.709l-.68.386c-.245.141-.492.282-.742.423-.09.052-.184.107-.279.164-.433.247-.85.487-1.261.733l-.243.145c-.113.067-.228.134-.34.2-.321.193-.636.387-.951.586l-.148.093-.108.069v.005l-.224.142c-.495.312-1 .653-1.515 1.014l-.1.06-.153.083-.129.07-.184.2h-.198a28.808 28.808 0 0 0 -5.832 4.531c-.356.337-.7.66-1.035.966v.543h-.621a10.146 10.146 0 0 1 -2.126 1.434l-.215.1c-.176.079-.363.153-.562.222l-.124.123-.334.006-.17.035-.154.022h-.02c-.24.02-.479.037-.716.047s-.467.016-.722.016z" fill="#7f95ae" transform="translate(-320.841 -137.81)"/><path d="m617.048 519.231-1.243-1.1a.939.939 0 0 0 -.394-.182c-2.382-.537-4.871-2.245-7.277-3.9a25.237 25.237 0 0 0 -5.158-3.03h-.076l-.179-.091a9.645 9.645 0 0 0 -3.853-.53c-.678-.02-1.476-.043-2.445-.089-.076 0-.144-.009-.214-.016a21.817 21.817 0 0 1 -2.235-.345 22.555 22.555 0 0 1 -2.52-.636 36.575 36.575 0 0 1 -3.826-1.364 9.869 9.869 0 0 1 -1.918-1.131l-.112-.08c-.034-.021-.068-.044-.1-.07l-.083-.067c-.177-.16-.807-.734-1.1-1.011l-.131-.13a14.945 14.945 0 0 1 -2.646-3.576c-.043-.082-.092-.184-.136-.286a5.923 5.923 0 0 1 -.543-2.113l-.409-.409.515-.522a4.843 4.843 0 0 1 1.39-2.081l.084-.074c.086-.076.176-.15.269-.224a12.747 12.747 0 0 1 5-2.137 24.941 24.941 0 0 1 13.326.568c6.494 2.107 12.007 6.335 14.746 11.311.043.084.073.14.1.2s.067.125.1.189c.146.282.286.575.429.894a16.139 16.139 0 0 1 1 10.416zm-13.536-10.107a25.626 25.626 0 0 1 5.735 3.3c2.2 1.511 4.474 3.072 6.472 3.571a14.1 14.1 0 0 0 -1.1-8c-.128-.286-.253-.547-.383-.8l-.086-.163c-.036-.067-.071-.133-.106-.2-2.49-4.522-7.585-8.406-13.616-10.362a22.982 22.982 0 0 0 -12.276-.523 10.868 10.868 0 0 0 -4.227 1.764c-.069.054-.137.11-.2.168l-.082.073a2.851 2.851 0 0 0 -.826 1.254 3.8 3.8 0 0 0 .381 1.59c.031.07.061.132.093.194a12.986 12.986 0 0 0 2.3 3.089l.1.1c.239.228.761.7.984.906l.033.023.145.1a7.919 7.919 0 0 0 1.583.939 35.019 35.019 0 0 0 3.611 1.282 20.643 20.643 0 0 0 2.3.581 20.029 20.029 0 0 0 2.027.316h.035c.041 0 .08.007.119.009.945.044 1.733.067 2.4.087a11.665 11.665 0 0 1 4.4.617h.041z" fill="#7f95ae" transform="translate(-324.819 -104.771)"/><path d="m469.1 812.065 7.417-1.952c6.9-1.815 11.371-6.125 18.4-17.734.242-.462.509-.939.791-1.443.555-.992 1.129-2.017 1.623-3.116l.588-1.309 1.008 1.021c4.682 4.741 9.511 4.848 15.653.35l1.007-.738.481 1.153a36.8 36.8 0 0 0 17.044 18.559l.269.136c3.211 1.63 5.264 2.653 6.1 3.041l4.025 1.866zm29.434-22.2c-.37.722-.752 1.406-1.105 2.036-.28.5-.546.975-.779 1.421l-.03.053c-5.578 9.211-9.666 14.042-14.58 16.7l52.84-.117q-1.061-.535-2.383-1.205l-.3-.15a38.749 38.749 0 0 1 -17.456-18.425c-6.054 4.033-11.378 3.932-16.21-.316z" fill="#7f95ae" transform="translate(-249.973 -301.796)"/><path d="m675.687 732.275-.789-1.8a6.919 6.919 0 0 0 3.051-2.389l.044-.064a7.215 7.215 0 0 0 1.664-5.553c-.778-4.995-7.556-9.843-14.731-14.975-3.554-2.542-7.227-5.169-10.464-8.005h-.612v-.544c-1.184-1.065-2.225-2.089-3.172-3.122l-.077-.086-.03-.032c-4.116-4.539-6.06-8.988-5.944-13.6l.008-.315.189-.251a16.979 16.979 0 0 1 3.4-3.072 24.766 24.766 0 0 0 8.149-9.3l.62-1.244.967 1c4.44 4.59 8.255 12.211 11.782 19.625a52.493 52.493 0 0 0 6.127 9.851c5.34 6.8 12.183 16.749 9.952 24.64-1.149 4.067-4.559 7.176-10.134 9.236zm-20.139-34.45a131.225 131.225 0 0 0 10.523 8.07c7.521 5.38 14.626 10.461 15.531 16.273a8.434 8.434 0 0 1 -.818 5.053 9.627 9.627 0 0 0 3.147-4.72c1.987-7.028-4.531-16.429-9.606-22.889a54.448 54.448 0 0 1 -6.356-10.222c-2.537-5.333-6.284-13.208-10.5-18.092a27.235 27.235 0 0 1 -8.052 8.735 18.1 18.1 0 0 0 -2.831 2.447c0 3.973 1.782 7.874 5.447 11.914l.025.029.02.022c.022.023.041.044.061.066.912.994 1.918 1.982 3.068 3.013h.033l.264.264z" fill="#7f95ae" transform="translate(-367.953 -222.083)"/><path d="m434.024 649.795c-.18.013-1.128.148-1.131.148l-.063.013a5.386 5.386 0 0 0 -1.578.634l-.1.062a13.937 13.937 0 0 0 -6.226 8.348c-.995 3.714-2.892 11.136-4.084 13.372-6.714 9.974-20.359 20.716-22.936 30.755-1.35 5.259-1.4 14.6 7.647 14.986" fill="none" stroke="#7f95ae" stroke-linecap="round" stroke-miterlimit="10" stroke-width="2" transform="translate(-201.68 -209.9)"/><g fill="#7f95ae"><path d="m679.659 575.982-.827-1.785c3.249-1.505 2.781-7.621 2.776-7.683l1.96-.166c.026.308.588 7.552-3.909 9.634z" transform="translate(-390.95 -153.81)"/><path d="m600.425 726.426c-7.282-16.236.312-32.443.639-33.125l1.774.85c-.076.159-7.519 16.085-.618 31.47z" transform="translate(-336.132 -239.143)"/><path d="m682.231 649.981-1.776-.846c2.122-4.453 3.087-8.524 2.5-9.054a1.047 1.047 0 0 0 -.564.061l-.544-1.89a2.309 2.309 0 0 1 2.612.561c1.79 2.107-.959 8.512-2.228 11.168z" transform="translate(-392.041 -202.037)"/><path d="m581.21 702.47a6.091 6.091 0 0 1 -1.7-.242c-3.32-.959-5.031-4.458-5.1-4.607a.984.984 0 0 1 1.773-.853c.014.029 1.416 2.865 3.885 3.573a5.156 5.156 0 0 0 4.22-.859.984.984 0 0 1 1.047 1.666 7.752 7.752 0 0 1 -4.125 1.322z" transform="translate(-320.695 -241.1)"/><path d="m481.449 624.13c-2.723.669-3.6 3.877-3.655 6.331a7.465 7.465 0 0 0 .122 1.6.989.989 0 0 0 1.21.687 1.009 1.009 0 0 0 .687-1.21c-.007-.038-.013-.075-.02-.113-.034-.192 0 .13.017.137-.029-.017-.026-.243-.029-.281-.016-.21-.023-.421-.022-.632 0-.237.01-.474.028-.71q.014-.185.035-.369c.007-.063.015-.126.023-.188-.043.367-.012.1 0 .007a8.149 8.149 0 0 1 .416-1.616c.017-.045.11-.27.032-.087s.019-.04.038-.083c.061-.13.126-.259.2-.384s.13-.22.2-.325c.032-.046.067-.091.1-.137-.2.289-.042.055.016-.012a3.426 3.426 0 0 1 .3-.309l.062-.054c.151-.128-.042.057-.07.051.023 0 .164-.115.186-.13.124-.08.255-.141.386-.208-.3.154-.09.038 0 .007s.168-.051.253-.072a.993.993 0 0 0 .687-1.21 1 1 0 0 0 -1.21-.687z" transform="translate(-255.818 -192.628)"/><path d="m467.893 640.112a7.079 7.079 0 0 0 -4.155 2.327 7.223 7.223 0 0 0 -1.674 4.764 5.152 5.152 0 0 0 .862 3.025 1.075 1.075 0 0 0 .588.452.984.984 0 0 0 1.111-1.445 3.073 3.073 0 0 1 -.3-.477c-.02-.039-.037-.08-.057-.119-.059-.119.064.178.023.051-.031-.1-.068-.187-.1-.284a4.608 4.608 0 0 1 -.124-.557c-.008-.048 0-.176-.006-.036s0 .009 0-.037c-.01-.1-.018-.2-.023-.3a6.863 6.863 0 0 1 .031-1.08c.018-.172 0 .052-.009.071.011-.04.013-.087.02-.128.016-.1.035-.193.055-.289q.058-.274.138-.544t.181-.532c.016-.041.033-.081.049-.122.049-.124-.079.174-.022.055.042-.088.081-.176.125-.263a5.286 5.286 0 0 1 .265-.465q.066-.1.137-.2c.024-.033.108-.143.009-.015s-.008.012.016-.017a6.17 6.17 0 0 1 .619-.651c.109-.1.223-.193.338-.286.1-.078-.166.123-.064.05l.093-.068q.119-.086.242-.165c.161-.1.327-.2.5-.29q.139-.073.282-.138c.038-.017.08-.032.116-.052-.085.047-.162.066-.026.013a6.377 6.377 0 0 1 1.284-.347.987.987 0 0 0 .687-1.21 1.012 1.012 0 0 0 -1.21-.687z" transform="translate(-245.245 -203.378)"/><path d="m458.113 665.381a12.938 12.938 0 0 0 -1.7 1.449 5.663 5.663 0 0 0 -1.234 2.12 7.464 7.464 0 0 0 -.331 2.408 5.792 5.792 0 0 0 .1 1.116 1.418 1.418 0 0 0 1.02 1.063 5.963 5.963 0 0 0 2.226.127 9.94 9.94 0 0 0 1.946-.318 7.507 7.507 0 0 0 2.716-1.406 8.867 8.867 0 0 0 1.538-1.715.987.987 0 0 0 -.353-1.345 1.011 1.011 0 0 0 -1.346.353c-.067.091-.135.182-.2.272-.1.133.112-.143.082-.105l-.059.074c-.041.052-.082.1-.124.153a6.834 6.834 0 0 1 -.618.655c-.055.051-.112.1-.169.151l-.1.081c-.038.032-.183.145-.029.026s-.064.047-.113.081q-.12.085-.245.164-.246.157-.507.289c-.092.047-.186.09-.28.133-.183.085.19-.075.046-.018-.058.023-.116.047-.175.068a7.531 7.531 0 0 1 -1.407.373l-.2.031c-.109.017.126-.016.115-.015l-.089.011q-.23.027-.461.043c-.311.022-.623.029-.935.025l-.249-.006c-.065 0-.341-.006-.057.015a2.285 2.285 0 0 1 -.431-.092c-.075-.021-.126-.083.089.039-.076-.043-.117-.1.1.114l.137.137.067.162a.509.509 0 0 1 -.026-.092c-.011-.045-.045-.263-.018-.063s0-.019 0-.06a8.786 8.786 0 0 1 -.012-1.067c0-.072.009-.145.015-.217a.94.94 0 0 0 .025-.252c.006.021-.037.233-.006.047l.017-.107c.016-.1.035-.189.056-.283a5.583 5.583 0 0 1 .154-.559c.027-.081.057-.161.087-.241.069-.187-.017.02-.015.03 0-.029.049-.109.061-.136a3.848 3.848 0 0 1 .255-.456 1.583 1.583 0 0 0 .149-.213s-.124.152-.054.071c.035-.041.069-.084.1-.126a6.994 6.994 0 0 1 .749-.739c.126-.108.254-.214.384-.317l.208-.164c.086-.068-.068.053-.068.052.053-.039.1-.08.157-.12a1.082 1.082 0 0 0 .452-.588 1 1 0 0 0 -.1-.758.993.993 0 0 0 -1.345-.353z" transform="translate(-240.396 -220.277)"/><path d="m465.267 667.213c2.178.165 4.661.6 6.585-.736a.984.984 0 0 0 -.993-1.7c-.1.071-.207.138-.315.2-.065.037-.3.108-.329.166q.212-.087.066-.028l-.057.022c-.057.022-.115.042-.173.061q-.176.058-.356.1t-.365.076c-.062.011-.125.017-.186.03.286-.056.075-.011.01 0-.255.027-.512.04-.769.044-1.043.015-2.08-.121-3.118-.2a.988.988 0 0 0 -.983.984 1.008 1.008 0 0 0 .983.984z" transform="translate(-246.738 -219.877)"/><path d="m490.37 551.894c-7.522-7.494-10.227-18.493-6.89-28.022a27.225 27.225 0 0 1 10.443-13.311c5.591-3.868 12.806-6.311 21.443-7.264l1.666-.184-.652 1.543a2.37 2.37 0 0 0 -.192 1.083l.029.031.044.719a6.682 6.682 0 0 0 2.624 4.193l2.55 2.192-3.2-.454c-4.9 2.9-26.7 16.836-18.938 31.279a1.393 1.393 0 0 1 .049 1.226 1.43 1.43 0 0 1 -.96.815l-.491-1.905a.534.534 0 0 0 -.351.3.57.57 0 0 0 .02.494c-3.811-7.088-1.852-15.038 5.666-22.992a65.8 65.8 0 0 1 13.3-10.491 7.854 7.854 0 0 1 -2.185-4.106l-.045-.04v-.394l-.4-.425.333-.355q-.011-.205 0-.408c-20.2 2.643-26.763 13.049-28.884 19.106-3.089 8.819-.568 19.016 6.421 25.979z" transform="translate(-258.694 -111.305)"/><path d="m565 610.454a.387.387 0 0 1 -.347-.217c-2.921-4.7-6.721-2.8-10.947-1.958 2.358-3.765 12.918-1.129 11.294 2.175z" transform="translate(-306.847 -180.753)"/><path d="m583.487 588.352c-2.756.211-3.949-1.681-4.466-3.518a40.189 40.189 0 0 0 6.349-1.122 2.754 2.754 0 0 1 -1.883 4.64z" transform="translate(-323.861 -165.481)"/><path d="m643.714 578.371c-3.733.645-5.523-2-5.732-3.082 2.535-.522 6.056-1.152 7.275-1.5.701 1.167 1.661 4.028-1.543 4.582z" transform="translate(-363.492 -158.811)"/><path d="m552.789 584.643c1.151 3.306 14.622-1.6 16.133-1.621-1.222-.122-14.155 2.314-16.133 1.621z" transform="translate(-306.228 -165.014)"/><path d="m566.867 601.485c-5.182-.3 5.746-.209 7.3-.51 1.693.413-5.579.561-7.3.51z" transform="translate(-314.761 -177.085)"/><path d="m637.073 571.505a.2.2 0 0 1 -.026.026 3.807 3.807 0 0 1 -1.085.5c-.1.039-.22.075-.341.115-.751.243-1.728.511-2.8.77-1.059.256-2.213.508-3.331.721-.374.072-.744.141-1.1.2a27.929 27.929 0 0 1 -3.711.456c-.675.016-1.082-.059-1.079-.256.046-.01 12.438-2.682 13.228-2.8a.946.946 0 0 1 .121.029.28.28 0 0 1 .056.016c.127.059.15.135.068.223z" transform="translate(-353.811 -157.1)"/><path d="m621.6 600.885c-3.569-3.531-4.918 3.476-3.819 1.58a2.388 2.388 0 0 1 .794-.847c2.4-1.484 2.867 1.2 2.056 3a1.709 1.709 0 0 0 1.529-1.127 2.372 2.372 0 0 0 -.56-2.606z" transform="translate(-349.663 -176.345)"/><path d="m553.363 571.947a40.307 40.307 0 0 1 4.123-1.393q2.084-.59 4.2-1.044a23.141 23.141 0 0 1 4.332-.661 9.888 9.888 0 0 1 1.134.025 5.543 5.543 0 0 1 1.132.232 4.407 4.407 0 0 1 1.893 1.18 5.733 5.733 0 0 0 -2.023-.565 5.47 5.47 0 0 0 -1.012-.006c-.326.032-.674.091-1.022.152-1.378.237-2.73.627-4.162.921q-2.116.441-4.259.754a40.375 40.375 0 0 1 -4.336.405z" transform="translate(-306.614 -155.488)"/><path d="m621.154 563.775a12.588 12.588 0 0 1 2.663-1.849 12.954 12.954 0 0 1 3.071-1.129 9.849 9.849 0 0 1 3.307-.193 7.286 7.286 0 0 1 3.091 1.09 22.584 22.584 0 0 0 -3.126-.059 19.554 19.554 0 0 0 -2.988.443c-.987.22-1.971.5-2.966.8s-1.99.637-3.052.897z" transform="translate(-352.181 -149.906)"/></g><path d="m669.1 566.488-.18-.19a24.662 24.662 0 0 1 -2.439-3.3 19.438 19.438 0 0 1 -2.383-5.567q-.285-1.1-.62-2.016c.154.105.308.213.462.318 2.406 1.652 4.895 3.36 7.278 3.9a.647.647 0 0 1 .085.026c.023 1.383-.108 5.258-2.203 6.829z" fill="#d6dbe7" opacity=".76" transform="translate(-380.627 -146.464)"/><path d="m620.572 519.749c-2-.5-4.272-2.062-6.471-3.573a36.006 36.006 0 0 0 -4.514-2.8c-.01 0-.02-.01-.029-.013a0 0 0 0 0 0 0 .012.012 0 0 1 -.007 0c-.033-.016-.069-.033-.1-.046a10.073 10.073 0 0 0 -1.092-.446l-.148-.069h-.03a11.648 11.648 0 0 0 -4.4-.616c-.666-.02-1.456-.043-2.4-.089-.039 0-.075 0-.115-.007l-.039-.007a20.319 20.319 0 0 1 -2.042-.318 21.3 21.3 0 0 1 -2.311-.584 34.735 34.735 0 0 1 -3.586-1.275 7.95 7.95 0 0 1 -1.58-.938l-.148-.1-.033-.023c-.223-.2-.744-.679-.983-.9l-.1-.1a13.012 13.012 0 0 1 -2.3-3.091c-.033-.062-.062-.125-.092-.193a3.728 3.728 0 0 1 -.38-1.59 2.844 2.844 0 0 1 .82-1.249l.089-.079c.062-.056.131-.111.2-.167 1.174-.924 3.764-2.1 9.445-2.472 6.983.085 16.595 4.183 20.673 11.6l.1.187c.033.059.062.115.1.177.128.249.252.508.38.8a14.079 14.079 0 0 1 1.093 7.981z" fill="#fff" transform="translate(-329.674 -108.537)"/><path d="m620.578 519.749a8.64 8.64 0 0 1 -1.18-.4 14 14 0 0 0 -1.262-5.7c-.128-.289-.252-.547-.38-.8-.033-.062-.062-.118-.1-.177l-.1-.187c-4.078-7.412-13.69-11.51-20.673-11.6-5.321.344-7.93 1.4-9.206 2.292-.007-.079-.007-.151-.007-.223a2.844 2.844 0 0 1 .82-1.249l.089-.079c.062-.056.131-.111.2-.167 1.174-.924 3.764-2.1 9.445-2.472 6.983.085 16.595 4.183 20.673 11.6l.1.187c.033.059.062.115.1.177.128.249.252.508.38.8a14.079 14.079 0 0 1 1.101 7.998z" fill="#d6dbe7" opacity=".76" transform="translate(-329.679 -108.537)"/><path d="m520.552 515.818a65.783 65.783 0 0 0 -13.3 10.487c-7.225 7.648-9.317 15.29-6.081 22.165a3.725 3.725 0 0 0 -2.124.649 2.7 2.7 0 0 0 -1.8.118 4.134 4.134 0 0 0 -2.062 2.77 11.189 11.189 0 0 0 -.288 1.164q-.088.467-.177.875a25.128 25.128 0 0 1 -5.363-24.856c2.121-6.055 8.688-16.464 28.886-19.106a3.916 3.916 0 0 0 0 .393l.072.806.049.4a7.826 7.826 0 0 0 2.188 4.135z" fill="#fff" transform="translate(-262.716 -115.991)"/><path d="m479.121 651.283a9.659 9.659 0 0 0 4.506.025c1.294-.265 2.539-.711 3.807-1.071a.984.984 0 1 0 -.523-1.9c-1.221.346-2.42.773-3.663 1.04q-.235.051-.472.094l-.219.037c-.057.009-.379.08-.106.018a4.965 4.965 0 0 1 -.964.074 7.748 7.748 0 0 1 -.974-.037l-.15-.017q.185.026.073.009c-.088-.016-.176-.029-.264-.046-.178-.034-.353-.077-.528-.125a.984.984 0 1 0 -.523 1.9z" fill="#7f95ae" transform="translate(-256.231 -208.898)"/><path d="m562.042 654.456c-.4-2.266-4.129-4.939-4.542-4.977a.085.085 0 0 1 -.046-.04c-.202-.706 4.398 1.035 4.588 5.017z" fill="#7f95ae" transform="translate(-309.36 -209.557)"/><path d="m608.376 628.34c3.388-2.715 12.469-3.075 15.518-.445-4.102-1.304-10.794-.832-15.518.445z" fill="#7f95ae" transform="translate(-343.592 -193.974)"/><path d="m575.973 736.424c-5.658 3.9-10.2 3.783-14.585-.377a61.9 61.9 0 0 0 3.79-11.107c.374-1.721.777-3.3 1.167-4.836.338-1.318.652-2.547.908-3.721a29.821 29.821 0 0 0 .574-3.4 23.081 23.081 0 0 0 .043-3.711 7.336 7.336 0 0 0 2.947 1.741 6.123 6.123 0 0 0 1.7.239 6.7 6.7 0 0 0 2.056-.334c-1.573 6.203-2.684 15.809 1.4 25.506z" fill="#fff" transform="translate(-312.008 -249.879)"/><path d="m575.143 697.9a.982.982 0 0 1 -.984-.982.984.984 0 1 1 .984.985z" fill="#3d2a6c" transform="translate(-320.592 -240.914)"/><path d="m590.29 816.78s-9.682-.168-20.282-10.789a7.39 7.39 0 0 0 -8.157-3.029c-3.6 1.036-10.047-1.9-10.047-1.9.58-.931 1.2-2.115 1.835-3.4.164-.3.368-.62.532-.941 4.832 4.249 10.119 4.351 16.174.315a40.972 40.972 0 0 0 19.945 19.744z" fill="#dfe3ee" transform="translate(-305.566 -308.654)"/><path d="m588.5 695.268c-.266.688-.574 1.554-.888 2.567a4.98 4.98 0 0 1 -3.891.662c-2.206-.633-3.56-2.964-3.832-3.475-.033-.315-.062-.633-.085-.941-.016-.207-.036-.413-.056-.62.869.374 1.672.688 2.43.954l.157.056h.007c.078.026.154.052.229.075l.593.151a16.9 16.9 0 0 0 2.036.406l.252.039.148.02.161.023a15.426 15.426 0 0 0 1.816.121c.256 0 .5-.01.725-.026.059-.002.125-.005.198-.012z" fill="#dfe3ee" transform="translate(-324.345 -239.251)"/><path d="m500.943 441.509c.794.2.843 1.292.681 1.938a3.472 3.472 0 0 1 -1.54 2.052 4.724 4.724 0 0 1 -2.982.6c-.8-.079-2.077-.289-2.552-1.031-.163-.255-.038-.47.232-.583a1.818 1.818 0 0 1 1.4.279 16.666 16.666 0 0 1 2.664 1.635 16.37 16.37 0 0 1 2.191 1.992 11.8 11.8 0 0 1 .942 1.117 1.227 1.227 0 0 1 .207 1.227 10.264 10.264 0 0 1 -.733 1.42 4.478 4.478 0 0 0 -.52 1.607 3.921 3.921 0 0 0 1.033 3.042c.563.617 1.477-.3.916-.916a2.626 2.626 0 0 1 -.369-2.966c.517-1.033 1.355-2.108.964-3.333a4.978 4.978 0 0 0 -1.072-1.605 17.047 17.047 0 0 0 -1.314-1.379 17.907 17.907 0 0 0 -3.06-2.31c-1.013-.605-2.362-1.469-3.589-1.06a1.7 1.7 0 0 0 -.775 2.793 5.2 5.2 0 0 0 3.44 1.365 5.829 5.829 0 0 0 3.737-.838 4.706 4.706 0 0 0 2.1-3.109c.194-1.269-.267-2.831-1.655-3.183a.648.648 0 0 0 -.344 1.249z" fill="#d6dbe7" transform="translate(-266.177 -69.042)"/><path d="m494.539 529.786c.265.016-4.04 1.247-6.549 2.891.964 1.583 8.587 1.591 6.549-2.891z" fill="#7f95ae" transform="translate(-262.673 -129.234)"/><path d="m502.552 519.757c-2.973-.051 2.23 10.187 2.849 3.416.099-1.132-2.281-.986-2.849-3.416z" fill="#7f95ae" transform="translate(-271.848 -122.492)"/><path d="m269.7 495.162a20.353 20.353 0 0 1 5.128.208 7.1 7.1 0 0 1 4.333 2.559 5.289 5.289 0 0 1 -1.631 7.7 10.657 10.657 0 0 1 -5.28.963l-9.134.088a169.212 169.212 0 0 1 -17.183-.417 20.55 20.55 0 0 1 -5.05-.949 8.226 8.226 0 0 1 -4.1-2.973c-1.912-2.818-1.117-6.926 1.3-9.33a11.644 11.644 0 0 1 9.449-2.885l-.288-.015c-.609-2.587.923-5.35 3.176-6.759a11.979 11.979 0 0 1 7.7-1.361 15.53 15.53 0 0 1 8.9 3.825 10.61 10.61 0 0 1 3.451 7.952 1.817 1.817 0 0 1 -.765 1.395z" fill="#fff" transform="translate(-93.101 -97.032)"/><path d="m868.392 542.576a23.024 23.024 0 0 1 5.8.235 8.031 8.031 0 0 1 4.9 2.9 5.986 5.986 0 0 1 -1.846 8.714c-1.775 1.023-3.927 1.07-5.975 1.089l-10.336.1a191.634 191.634 0 0 1 -19.444-.471 23.254 23.254 0 0 1 -5.714-1.074 9.306 9.306 0 0 1 -4.643-3.364c-2.163-3.189-1.263-7.838 1.467-10.557s6.861-3.679 10.693-3.265l-.326-.017c-.689-2.927 1.043-6.053 3.593-7.648a13.552 13.552 0 0 1 8.716-1.54 17.572 17.572 0 0 1 10.076 4.322 12 12 0 0 1 3.9 9 2.055 2.055 0 0 1 -.866 1.579z" fill="#fff" transform="translate(-492.514 -127.727)"/><path d="m528.824 460.787a7.16 7.16 0 0 1 .891 2.954 12.56 12.56 0 0 1 -.612 2.166 4.573 4.573 0 0 0 1.145 3.411c.54.772 1.82.036 1.274-.745a3.2 3.2 0 0 1 -.769-2.966 8.5 8.5 0 0 0 .417-1.586 8.339 8.339 0 0 0 -1.071-3.978c-.394-.862-1.666-.113-1.274.745z" fill="#d6dbe7" transform="translate(-290.07 -82.097)"/><path d="m127.556 860.906q29.945-.209 59.891-.408 28.736-.181 57.473-.3 28.283-.1 56.565-.089 28.445.024 56.889.217 29.636.206 59.271.622 3.835.054 7.669.112a.984.984 0 0 0 0-1.967q-29.82-.448-59.642-.68-28.672-.224-57.345-.262-28.279-.043-56.558.056-28.5.092-57 .276-29.752.181-59.5.4l-7.707.054a.984.984 0 0 0 0 1.967z" fill="#dbdde1" transform="translate(-19.763 -349.943)"/><path d="m470.786 661.565a48.666 48.666 0 0 1 -1.43 6.839c-.393 1.544-.8 3.144-1.18 4.895a64.067 64.067 0 0 1 -4.485 12.513c-.341.656-.695 1.288-1.039 1.908-.282.5-.547.977-.79 1.439-6.471 10.681-11.964 17.231-19.665 19.26l-6.335.561c-1.728.148-3.494.19-5.331.193h-.046c-2.764 0-5.485-.521-6.776-1.3-2.534-1.528-3.75-3.383-3.717-5.685a19.907 19.907 0 0 1 8.163-15.572c4.065-2.944 7.855-5.622 10.9-7.776 2.639-1.865 4.724-3.341 5.924-4.232a43.488 43.488 0 0 0 7.822-7.075c2.426-2.951 2.9-5.3 3.354-8.547.459-3.3.413-4.97-1.934-8.156-2.114-2.869-4.272-6.616-4.534-7.861a4.471 4.471 0 0 1 .325-2.288c.085-.3.18-.652.286-1.052.183-.715.465-1.849.783-3.472a9.085 9.085 0 0 1 .236-.947 2.684 2.684 0 0 1 .879-1.492c-.557 2.577-.983 5.429-.419 6.406a.977.977 0 0 0 .852.5 1 1 0 0 0 .492-.131.983.983 0 0 0 .387-1.295s0-.01-.006-.013c-.184-.616.236-3.35.764-5.711a1.668 1.668 0 0 1 1.174-.367 1.23 1.23 0 0 1 .715.682c-.5 1.511-1.393 4.7-.715 6.245a.987.987 0 0 0 .9.59.936.936 0 0 0 .393-.085.984.984 0 0 0 .508-1.295c-.325-.734.22-3.255.925-5.268a1.252 1.252 0 0 0 .075-.144c.082-.19.315-.633.613-.613.623.043 1.157 1.429.951 4.426a5.171 5.171 0 0 0 3.927 5.6c3.16 1.938 5.062 4.082 5.976 6.74a13.054 13.054 0 0 1 .587 2.521c.049.361.089.744.121 1.154.049.593.111 1.193.17 1.8a30.053 30.053 0 0 1 .2 6.105z" fill="#fff" transform="translate(-216.966 -198.67)"/><path d="m426.35 707.058c-3.2 0-6.188-.608-7.812-1.591-2.632-1.584-4.175-3.6-4.582-6a7.911 7.911 0 0 1 -.109-1.43 21.948 21.948 0 0 1 9-17.179c4.064-2.946 7.853-5.624 10.9-7.777 2.635-1.863 4.717-3.335 5.9-4.216a41.678 41.678 0 0 0 7.473-6.737c2.022-2.462 2.458-4.274 2.915-7.548.427-3.06.329-4.116-1.561-6.687-2.113-2.866-4.518-6.885-4.883-8.647a6.2 6.2 0 0 1 .356-3.231c.082-.3.175-.635.276-1.022.177-.691.45-1.8.757-3.352a10.069 10.069 0 0 1 .291-1.164 4.118 4.118 0 0 1 2.056-2.767 2.711 2.711 0 0 1 1.8-.118 3.43 3.43 0 0 1 2.644-.58 2.825 2.825 0 0 1 1.294.709 2.367 2.367 0 0 1 1.8-.651c1.485.1 3.178 1.331 2.816 6.575a3.109 3.109 0 0 0 1.984 3.355 11.489 11.489 0 0 1 2.157 1.153 14.172 14.172 0 0 1 5.654 7.033 15.126 15.126 0 0 1 .678 2.908c.058.41.1.838.134 1.271.026.323.058.653.09.986l.079.787a31.435 31.435 0 0 1 .2 6.5 49.866 49.866 0 0 1 -1.48 7.123c-.391 1.53-.8 3.113-1.167 4.833a62.785 62.785 0 0 1 -4.053 11.7 48.89 48.89 0 0 1 -2.909 5.613c-6.342 10.191-12.326 15.852-19.4 18.355a39.318 39.318 0 0 1 -13.244 1.8zm22.022-77.558a.594.594 0 0 0 -.243.049 2.467 2.467 0 0 0 -.947 1.527 8.19 8.19 0 0 0 -.235.945c-.317 1.611-.6 2.754-.784 3.474-.105.4-.2.745-.284 1.05a4.427 4.427 0 0 0 -.326 2.286c.259 1.25 2.419 5 4.533 7.864 2.349 3.194 2.395 4.856 1.934 8.159-.453 3.249-.931 5.6-3.353 8.548a43.46 43.46 0 0 1 -7.824 7.072c-1.2.9-3.291 2.375-5.938 4.247-3.04 2.15-6.823 4.825-10.878 7.763a19.9 19.9 0 0 0 -8.167 15.575 5.891 5.891 0 0 0 .081 1.067c.309 1.817 1.5 3.326 3.637 4.612 1.29.781 4.007 1.3 6.775 1.3h.048a37.523 37.523 0 0 0 12.575-1.686c6.617-2.341 12.281-7.745 18.366-17.522a47.64 47.64 0 0 0 2.782-5.376 61.6 61.6 0 0 0 3.921-11.294c.38-1.756.789-3.357 1.184-4.905a48.5 48.5 0 0 0 1.427-6.827 29.87 29.87 0 0 0 -.2-6.091l-.08-.8c-.033-.344-.066-.685-.094-1.026q-.043-.594-.121-1.147a13.128 13.128 0 0 0 -.587-2.528 12.078 12.078 0 0 0 -4.9-6.039 9.476 9.476 0 0 0 -1.781-.947 5.116 5.116 0 0 1 -3.221-5.35c.206-2.981-.347-4.385-.948-4.427-.318-.033-.531.422-.612.613a1.132 1.132 0 0 1 -1.008.681 1.147 1.147 0 0 1 -1.026-.62c-.278-.561-.573-.734-.771-.781a1.952 1.952 0 0 0 -1.429.546l-.486.367-.55-.26a1.1 1.1 0 0 0 -.47-.119z" fill="#7f95ae" transform="translate(-212.835 -194.537)"/><path d="m528.445 639.286a1.007 1.007 0 0 1 -.923-.6c-.8-1.823.526-5.783.951-6.954a1.007 1.007 0 0 1 1.893.688c-.742 2.045-1.32 4.726-1 5.457a1.008 1.008 0 0 1 -.922 1.412z" fill="#7f95ae" transform="translate(-289.075 -197.311)"/><path d="m517.194 638.087a1.007 1.007 0 0 1 -.874-.5c-.648-1.127 0-4.713.664-7.523a1.007 1.007 0 0 1 1.96.461c-.571 2.427-1.047 5.438-.857 6.1a1.007 1.007 0 0 1 -.893 1.47z" fill="#7f95ae" transform="translate(-281.536 -196.112)"/><path d="m779.049 498.558c.252.431 1.545 3.289-1.64 3.244-2.422.007-7.544-.007-9.966 0 0 0-21.349-.28-23.591-.381a3.436 3.436 0 0 1 -1.759-.4 2.266 2.266 0 0 1 -.915-1.819 5.732 5.732 0 0 1 .4-2.064c1.2-3.5 3.457-6.8 5.363-9.978 3.87-6.45 6.391-11.453 10.946-17.437.327-.43 1.229-2.114 2.385-2.1 3.421-.136 18.777 30.935 18.777 30.935z" fill="#fff" transform="translate(-432.856 -87.448)"/><g fill="#7f95ae"><path d="m776.188 497.038c.044.076.079.156.119.234.1.192-.063-.189-.016-.041.024.077.058.153.084.23a3.88 3.88 0 0 1 .129.478c.027.134.013.226.009.025 0 .107.011.213.013.321a.534.534 0 0 0 -.007.116c.027.1.068-.233.007-.062a1.165 1.165 0 0 0 -.062.22c.023-.207.082-.146.03-.078a.872.872 0 0 0 -.075.124c-.044.085.124-.067.043-.059-.006 0-.2.18-.063.07.109-.085-.151.079-.195.1.2-.1-.062.01-.145.031-.059.014-.118.026-.177.037.176-.033-.042 0-.087.007-.172.009-.343.011-.515.011-2.662 0-5.325 0-7.987 0-2.338 0-4.674-.035-7.012-.068q-6-.084-11.989-.178-2.369-.039-4.737-.087c-.467-.01-.934-.02-1.4-.035a8.734 8.734 0 0 1 -.9-.051 1.671 1.671 0 0 1 -.658-.212 1.165 1.165 0 0 1 -.4-.717 4.5 4.5 0 0 1 .4-2.272 22.207 22.207 0 0 1 .986-2.316c.8-1.626 1.728-3.18 2.675-4.721 1.824-2.971 3.574-5.982 5.33-8.994 1.667-2.859 3.383-5.689 5.285-8.4q.8-1.133 1.628-2.237c.283-.376.618-.906.853-1.2a5.028 5.028 0 0 1 .528-.548c-.094.078.173-.111.233-.143.141-.074-.121.063.018-.008a1.064 1.064 0 0 1 .13-.036q-.148.014-.038.009a.324.324 0 0 1 .111 0c.113.017-.307-.088-.175-.023a.657.657 0 0 0 .176.053c-.221-.009-.213-.111-.044-.006.073.045.144.092.216.139.228.147-.177-.157.009.006.082.072.165.141.245.215a11.156 11.156 0 0 1 .995 1.081c.087.106.173.212.258.32l.14.179c-.153-.193-.038-.049.036.049q.3.4.593.807c.439.615.861 1.241 1.274 1.873 2.067 3.163 3.938 6.456 5.765 9.763q2.72 4.92 5.288 9.923 1.492 2.889 2.945 5.8l.135.273a.984.984 0 0 0 1.7-.993c-.72-1.458-1.457-2.907-2.2-4.354q-2.525-4.936-5.167-9.811c-1.906-3.5-3.857-6.987-5.98-10.362-.834-1.325-1.693-2.64-2.639-3.889a11.855 11.855 0 0 0 -2.36-2.543 2.242 2.242 0 0 0 -1.2-.463c-1.347-.059-2.3 1.107-2.984 2.112-.887 1.306-1.868 2.547-2.76 3.852-.975 1.426-1.905 2.883-2.8 4.358-1.818 2.985-3.523 6.039-5.311 9.042-1.91 3.209-4.041 6.313-5.451 9.789-.653 1.609-1.374 3.644-.29 5.239.792 1.165 2.08 1.341 3.387 1.384 1.223.04 2.447.057 3.67.079q6.085.11 12.171.189c2.485.035 4.97.088 7.455.1 2.56.015 5.121 0 7.681 0h1.884a5.538 5.538 0 0 0 1.831-.2 2.44 2.44 0 0 0 1.665-2.551 4.731 4.731 0 0 0 -.6-1.977.984.984 0 0 0 -1.706.997z" transform="translate(-430.844 -85.431)"/><path d="m793.063 497.847a2.667 2.667 0 0 0 -2.4 1.427 5.234 5.234 0 0 0 -.626 2.307c-.268 2.943.362 9.561 3 9.561 1.812 0 2.607-3.274 2.833-4.314a20.622 20.622 0 0 0 .593-4.973c.003-1.066-.21-4.127-3.4-4.008z" transform="translate(-465.663 -107.763)"/><path d="m792.036 496.339a3.42 3.42 0 0 0 -1.863.589 3.957 3.957 0 0 0 -1.337 1.906 10.816 10.816 0 0 0 -.365 3.749 22.013 22.013 0 0 0 .387 3.579 9.2 9.2 0 0 0 1.079 3.09 2.54 2.54 0 0 0 2.074 1.372 2.919 2.919 0 0 0 2.379-1.89 11.937 11.937 0 0 0 .948-2.865 22.381 22.381 0 0 0 .593-5.155 5.638 5.638 0 0 0 -.659-2.733 3.479 3.479 0 0 0 -3.237-1.643.5.5 0 0 0 0 .991 2.5 2.5 0 0 1 2.343 1.089 4.252 4.252 0 0 1 .549 1.974 16.443 16.443 0 0 1 -.268 3.812 20.381 20.381 0 0 1 -.727 3.059 3.931 3.931 0 0 1 -1.415 2.229 1.168 1.168 0 0 1 -1.54-.467 6.29 6.29 0 0 1 -1-2.384 18.1 18.1 0 0 1 -.466-3.076c-.154-2.135-.4-6.043 2.523-6.235.635-.041.64-1.03.002-.991z" transform="translate(-464.636 -106.75)"/><path d="m795.148 546.357c-2.93 0-2.935 4.554 0 4.554s2.936-4.554 0-4.554z" transform="translate(-467.656 -140.373)"/><path d="m794.26 550.456a2.589 2.589 0 0 1 -2.633-2.709 2.828 2.828 0 0 1 .655-1.849 2.517 2.517 0 0 1 1.978-.863 2.712 2.712 0 0 1 0 5.421zm0-4.554a1.845 1.845 0 1 0 1.766 1.842 1.988 1.988 0 0 0 -.445-1.282 1.679 1.679 0 0 0 -1.321-.562z" transform="translate(-466.767 -139.484)"/></g></g></svg>