<svg height="175" viewBox="0 0 350 175" width="350" xmlns="http://www.w3.org/2000/svg" xmlns:xlink="http://www.w3.org/1999/xlink"><linearGradient id="a" gradientUnits="objectBoundingBox" x1=".5" x2=".5" y1="-.254" y2=".779"><stop offset="0" stop-color="#fff"/><stop offset="1" stop-color="#5baae0" stop-opacity="0"/></linearGradient><g fill="#fff"><path d="m0 0h350v175h-350z" opacity="0"/><path d="m324.631 318.737a1.47 1.47 0 0 1 -.792 1.551 2.083 2.083 0 0 1 1.542 1.333 1.788 1.788 0 0 1 1.627-1.132c-.351-.533-.809-.965-.718-1.6a1.7 1.7 0 0 1 -1.659-.136z" transform="translate(-183.618 -183.062)"/><path d="m415.04 127.359a1.447 1.447 0 0 1 -1.653.452 2.05 2.05 0 0 1 .052 2.005 1.76 1.76 0 0 1 1.9.432c.154-.608.166-1.228.685-1.581a1.668 1.668 0 0 1 -1-1.3z" transform="translate(-220.419 -104.411)"/></g><path d="m132.108 258.475c-7.807-10.728-13.943-24.152-14.067-38.545s7.12-29.438 18.467-33c7.4-2.321 15.685.224 22.553-3.886 9.158-5.48 11.8-20.117 19.338-28.537 12.218-13.649 31.945-6.692 47.467-13.608 14.663-6.533 23.625-24.418 36-36.086 16.849-15.887 39.9-19.517 60.66-14s39.494 19.3 56.214 35.388c12.768 12.287 25.24 27.376 28.451 46.912 1.32 8.031 1.017 16.575 3.71 24.069 3.41 9.488 11.034 15.68 15.377 24.574 5.329 10.913 4.9 25.663-1.04 36.085z" fill="url(#a)" opacity=".57" transform="translate(-99.039 -88.4)"/><ellipse cx="178.222" cy="171.165" fill="#bfc4d1" opacity=".42" rx="104.975" ry="3.835"/><g fill="#7f95ae"><path d="m293.27 372.433h-17.894a1.17 1.17 0 0 1 -1.17-1.17 12.626 12.626 0 0 1 -.068-4.63l.068-.4h20.235l.161 1.14a10.715 10.715 0 0 1 -.161 3.886 1.171 1.171 0 0 1 -1.171 1.174z" transform="translate(-163.117 -202.583)"/><path d="m491.052 372.433h-17.894a1.171 1.171 0 0 1 -1.171-1.17 12.64 12.64 0 0 1 -.068-4.63l.068-.4h20.235l.161 1.14a10.743 10.743 0 0 1 -.161 3.886 1.171 1.171 0 0 1 -1.17 1.174z" transform="translate(-244.4 -202.583)"/><path d="m251.349 308.1a20.7 20.7 0 0 1 -4.249-.107l.783.105a6.451 6.451 0 0 1 -1.576-.325l.7.3a1.983 1.983 0 0 1 -.295-.166l.6.461a1.3 1.3 0 0 1 -.172-.164l.461.6a.68.68 0 0 1 -.082-.13l.3.7a.931.931 0 0 1 -.063-.229l.105.783v-.11l-.1.783a1.323 1.323 0 0 1 .089-.317l-.3.7a3.039 3.039 0 0 1 .289-.456l-.461.6a7.4 7.4 0 0 1 1.263-1.17l-.6.461a16.908 16.908 0 0 1 3.71-2.161l-.7.3q.575-.239 1.166-.437l-3.728-2.84-.071 5.047-.011.726a3.026 3.026 0 0 0 .863 2.083 2.945 2.945 0 0 0 5.027-2.083l.071-5.046.011-.726a2.968 2.968 0 0 0 -3.728-2.84 20.13 20.13 0 0 0 -6.694 3.773 6.849 6.849 0 0 0 -1.388 1.608 3.808 3.808 0 0 0 -.1 3.892 4.3 4.3 0 0 0 2.563 1.848 15.007 15.007 0 0 0 2.254.352 20.4 20.4 0 0 0 4.063.084 3.14 3.14 0 0 0 2.083-.862 2.946 2.946 0 0 0 0-4.165 2.906 2.906 0 0 0 -2.083-.872z" transform="translate(-149.976 -176.307)"/><path d="m241.8 313.835a133.594 133.594 0 0 0 -.065 13.925 21.767 21.767 0 0 0 .4 3.822 4.911 4.911 0 0 0 2.72 3.15 19.907 19.907 0 0 0 7.025 1.784 2.958 2.958 0 0 0 2.945-2.945 3.02 3.02 0 0 0 -2.945-2.945c-.262-.022-.523-.046-.784-.077.432.051.133.015-.125-.031q-.647-.114-1.282-.279-.7-.18-1.381-.421c-.206-.072-.409-.156-.614-.23-.356-.129.385.244-.067-.039-.121-.075-.478-.422-.258-.132.149.2.306.389.448.6q-.084-.431-.027-.087.052.369-.005-.14c-.018-.242-.044-.483-.063-.724q-.125-1.52-.184-3.043c-.163-4.062-.014-8.127.154-12.186a2.967 2.967 0 0 0 -2.945-2.945 3.007 3.007 0 0 0 -2.945 2.945z" transform="translate(-149.809 -179.836)"/></g><path d="m253.243 309.321q-.027 1.923-.051 3.85a18.708 18.708 0 0 1 -3.006-.1 7.114 7.114 0 0 1 -1.679-.294s-.07-.041-.13-.074c.044-.08.136-.236.154-.259a6.008 6.008 0 0 1 1.2-1.1 16.391 16.391 0 0 1 1.46-.989 14.985 14.985 0 0 1 2.052-1.034z" fill="#d6dbe7" transform="translate(-152.605 -179.192)"/><path d="m254.726 335.817a1.041 1.041 0 0 0 -.514-.17 15.939 15.939 0 0 1 -4.249-.936 4.161 4.161 0 0 1 -1.629-.825c-.409-.449-.33-1.355-.381-1.915q-.444-4.894-.469-9.808-.014-2.173.058-4.346a7.9 7.9 0 0 0 1.934.355 21.465 21.465 0 0 0 4.122.082.86.86 0 0 0 .092-.011.74.74 0 0 0 .168-.047.439.439 0 0 0 .054-.025q.041 8.84.814 17.646z" fill="#fff" transform="translate(-152.236 -182.684)"/><path d="m216.831 267.959c-2.952 1.387-5.94 2.92-9.2 3.411-2.79.419-5.973.018-8.063-2.04-1.7-1.677-2.68-4.49-1.188-6.612 1.074-1.529 3.628-2.672 5.218-1.215 1.2 1.1 1.414 3.978-.353 4.686a1.069 1.069 0 0 0 -.723 1.273 1.042 1.042 0 0 0 1.273.723c2.674-1.072 3.406-4.259 2.258-6.743-1.306-2.827-4.8-3.279-7.3-1.8a6.519 6.519 0 0 0 -2.578 8.3c1.489 3.552 5.04 5.424 8.764 5.625 4.631.25 8.87-1.9 12.942-3.818 1.2-.566.155-2.351-1.044-1.787z" fill="#d6dbe7" opacity=".57" transform="translate(-130.917 -158.436)"/><path d="m580.225 211.414c-2.307 1.081-4.636 2.116-6.971 3.132-2.623 1.143-5.261 2.315-7.978 3.22-3.382 1.126-7.777 1.141-10.44-1.56a5.811 5.811 0 0 1 -1.778-4.963 4.383 4.383 0 0 1 3.117-3.307 2.736 2.736 0 0 1 3.525 1.764c.358 1.153.184 2.92-1.108 3.439a1.069 1.069 0 0 0 -.723 1.273 1.042 1.042 0 0 0 1.273.723c3.555-1.425 3.71-6.884.441-8.77a5.564 5.564 0 0 0 -5.8.428 6.331 6.331 0 0 0 -2.85 5.554 8.364 8.364 0 0 0 3.177 5.974 11.054 11.054 0 0 0 7.167 2.209c3.527-.075 6.726-1.528 9.922-2.871q5.078-2.135 10.075-4.461c1.205-.564.156-2.349-1.044-1.787z" fill="#d6dbe7" opacity=".57" transform="translate(-276.941 -136.622)"/><path d="m396.052 149.224-.248-.263a25.413 25.413 0 0 1 -2.614-3.518 19.988 19.988 0 0 1 -1.479-2.81c-.151.064-.328.132-.524.2-.1.039-.216.074-.335.113.681 1.183 1.527 3.891-1.556 4.425a4.785 4.785 0 0 1 -5.55-2.763 27.247 27.247 0 0 1 -3.64.447c-.662.016-1.061-.058-1.058-.25.042-.01 10.01-2.158 12.47-2.65a22.013 22.013 0 0 1 -.9-2.717c-.65-2.517-1.553-4.245-2.482-4.759-.013-.006-.029-.016-.045-.022a8.357 8.357 0 0 0 -.817-.338h-.064l-.177-.087a9.429 9.429 0 0 0 -3.787-.524c-.666-.019-1.447-.042-2.4-.087-.074 0-.141-.006-.212-.016a21.244 21.244 0 0 1 -2.209-.341 22.571 22.571 0 0 1 -2.479-.627 35.829 35.829 0 0 1 -3.727-1.331 9.42 9.42 0 0 1 -1.881-1.109l-.11-.078a.934.934 0 0 1 -.1-.067l-.083-.068-.714-.656-.309-.045c-4.81 2.839-26.193 16.511-18.576 30.675a1.368 1.368 0 0 1 .158.518 2.245 2.245 0 0 1 1.283-.29c1.457.1 3.119 1.309 2.762 6.447a3.12 3.12 0 0 0 2.453 3.46l.164.035.151.087c3.6 2.177 5.775 4.637 6.843 7.74.128.366.241.739.338 1.132l.071.032c1.177.534 2.206.955 3.154 1.293l.174.061c.1.035.2.071.3.1l.5.123a14.224 14.224 0 0 0 1.782.357l.122.016c.051.006.1.016.148.022s.1.016.161.022h.161l.061.029a10.581 10.581 0 0 0 2 .064c.174-.006.331-.019.489-.029l.038-.022h.161c.026-.006.051-.009.077-.016l.084-.039h.068a4.973 4.973 0 0 0 .588-.241l.206-.1a9.168 9.168 0 0 0 1.662-1.189l.087-.081c.412-.36.839-.762 1.29-1.19a30.316 30.316 0 0 1 6.042-4.691l2.652-1.685c.322-.206.643-.4.965-.594.112-.068.228-.138.348-.206l.131-.08c.45-.27.9-.531 1.351-.788.084-.048.19-.113.306-.177.237-.135.469-.267.7-.4l.54-.309.154-.084a37.07 37.07 0 0 0 5.267-3.45c.115-.093.219-.18.318-.27.177-.154.348-.312.56-.521a10.683 10.683 0 0 0 .894-1l.135-.167a7.68 7.68 0 0 0 1.048-1.852l.061-.164c.074-.19.132-.373.187-.563.026-.1.048-.173.064-.25l.048-.158c.055-.132.106-.263.154-.389.032-.081.058-.151.084-.226.1-.276.177-.521.241-.749l.023-.084c.009-.035.022-.074.032-.11.035-.138.068-.273.1-.412.874-4.143-1.541-6.715-4.335-9.696zm-28.4 8.09a.382.382 0 0 1 -.341-.212c-1.44-2.315-3.1-3-4.913-3a32.976 32.976 0 0 0 -5.823 1.077c2.31-3.688 12.667-1.106 11.078 2.135zm-5.936-5.2c-5.08-.3 5.636-.2 7.157-.5 1.668.408-5.467.552-7.155.501zm7.376-1.5a3.92 3.92 0 0 1 -4.219-2.942c-3.891.92-7.987 1.5-8.6-.238 1.939.679 14.63-1.707 15.823-1.592a6.7 6.7 0 0 0 -1.151.232 2.7 2.7 0 0 1 -1.851 4.542zm1.874-8.473a5.386 5.386 0 0 0 -.994 0c-.318.029-.659.087-1 .148-1.351.231-2.675.614-4.08.9q-2.074.434-4.177.739a39.714 39.714 0 0 1 -4.251.4 39.587 39.587 0 0 1 4.045-1.367c1.364-.386 2.737-.724 4.116-1.023a22.754 22.754 0 0 1 4.247-.65 10.012 10.012 0 0 1 1.113.026 5.431 5.431 0 0 1 1.113.228 4.314 4.314 0 0 1 1.855 1.157 5.628 5.628 0 0 0 -1.985-.555zm9.907-2.171a12.758 12.758 0 0 1 3.009-1.109 9.728 9.728 0 0 1 3.244-.19 7.177 7.177 0 0 1 3.032 1.071 21.855 21.855 0 0 0 -3.064-.058 19.32 19.32 0 0 0 -2.933.434c-.968.216-1.933.492-2.907.785s-1.954.627-3 .881a12.3 12.3 0 0 1 2.621-1.811zm.293 12.28a2.324 2.324 0 0 1 .55 2.549 1.672 1.672 0 0 1 -1.5 1.106c.795-1.762.335-4.392-2.016-2.936a2.332 2.332 0 0 0 -.782.83c-1.074 1.862.248-5.009 3.75-1.546zm-7.013 9.636c3.322-2.662 12.228-3.016 15.219-.434-4.021-1.276-10.587-.813-15.217.438z" fill="#fff" transform="translate(-193.882 -105.2)"/><path d="m402.581 158.9c-.029.138-.061.273-.1.412-.009.035-.022.074-.032.11l-.023.083c-.064.229-.141.473-.241.749-.026.074-.051.145-.084.225-.048.125-.1.257-.154.389l-.048.157c-.016.078-.038.154-.064.251-.055.19-.113.373-.187.563l-.061.164a7.691 7.691 0 0 1 -1.048 1.852l-.135.167c-.068.087-.141.177-.216.267a7.5 7.5 0 0 0 .415-.881l.061-.164c.074-.19.132-.373.187-.563.025-.1.048-.174.064-.251l.048-.157c.054-.132.106-.264.154-.389.032-.08.058-.151.084-.225.1-.277.177-.521.241-.749l.022-.084c.01-.035.022-.074.032-.11.035-.138.068-.273.1-.411.891-4.145-1.524-6.717-4.318-9.7l-.248-.264a25.363 25.363 0 0 1 -2.614-3.518 19.954 19.954 0 0 1 -1.479-2.81 1.772 1.772 0 0 1 -.2-.479 22 22 0 0 1 -.9-2.717c-.649-2.518-1.553-4.245-2.482-4.759-.013-.006-.029-.016-.045-.022a8.41 8.41 0 0 0 -.817-.338h-.064l-.177-.087a9.422 9.422 0 0 0 -3.788-.524c-.666-.019-1.447-.042-2.4-.087a2.068 2.068 0 0 1 -.212-.016 21.394 21.394 0 0 1 -2.209-.34 22.58 22.58 0 0 1 -2.479-.627 35.826 35.826 0 0 1 -3.727-1.331 9.444 9.444 0 0 1 -1.881-1.109l-.109-.077a.931.931 0 0 1 -.1-.068l-.084-.068-.714-.656-.309-.045c-2.762 1.63-10.978 6.827-16.039 13.634 4.907-7.492 14.074-13.3 17.022-15.038l.309.045c.283.261.6.55.714.656l.084.068a.923.923 0 0 0 .1.067l.11.077a9.391 9.391 0 0 0 1.881 1.11 35.968 35.968 0 0 0 3.727 1.331 22.6 22.6 0 0 0 2.479.627 21.269 21.269 0 0 0 2.209.341c.071.009.138.013.212.016.952.045 1.734.068 2.4.087a9.437 9.437 0 0 1 3.787.524l.177.087h.064a8.408 8.408 0 0 1 .816.338c.016.006.032.016.045.022.929.514 1.832 2.241 2.482 4.759a22.007 22.007 0 0 0 .9 2.717 1.779 1.779 0 0 0 .2.479 19.988 19.988 0 0 0 1.479 2.81 25.413 25.413 0 0 0 2.615 3.518l.247.263c2.797 2.978 5.212 5.55 4.321 9.699z" fill="#dfe3ee" transform="translate(-196.096 -105.189)"/><path d="m495.092 249.906h-3.271l.767-75.695c.009-.941.4-1.693.868-1.693.473 0 .859.753.869 1.693z" fill="#7f95ae" opacity=".4" transform="translate(-252.654 -122.97)"/><g fill="#fff"><path d="m435.076 257.182-.045.064a7.235 7.235 0 0 1 -2.772 2.54c-5.7.675-18.627-.929-20.158-1.126a.006.006 0 0 1 -.009 0 14.722 14.722 0 0 1 -3.409-2.184l.071-.119-.106-.064-.025-.009a36.082 36.082 0 0 1 -16.644-18.164l-.009-.022-.463-1.106h-.007c-5.492-13.608.013-27.331.945-29.475a10.647 10.647 0 0 0 1.768-1.242l.608-.534c.331-.3.666-.617 1.013-.948a28.187 28.187 0 0 1 5.72-4.444h.132l.19-.183.18-.1.125-.068.1-.061c.5-.351.994-.685 1.486-.994l.229-.145v-.006c.035-.022.071-.045.11-.067l.132-.084c.309-.2.617-.386.932-.576.109-.064.219-.128.325-.193l.141-.084.09-.055c.408-.244.823-.482 1.257-.73.09-.055.184-.11.274-.161l.7-.4c.18-.1.357-.206.531-.3l.157-.09a38.8 38.8 0 0 0 5.543-3.637c.132-.106.264-.219.367-.315.19-.164.392-.35.633-.588l.026-.026c.3-.3.572-.595.823-.9a.636.636 0 0 1 .283 0c.57.518-.366 4.485-2.43 8.833-.007.016-.017.032-.023.048a24.241 24.241 0 0 1 -7.987 9.106 16.62 16.62 0 0 0 -3.338 3.016l-.186.244-.01.309c-.112 4.524 1.794 8.888 5.833 13.341a.315.315 0 0 0 .032.035l.071.081c.932 1.013 1.952 2.019 3.112 3.061l.6.534c3.177 2.781 6.778 5.357 10.264 7.852 7.038 5.032 13.685 9.788 14.45 14.688a7.086 7.086 0 0 1 -1.632 5.448z" transform="translate(-210.435 -130.392)"/><path d="m327.362 189.5h-.006a5.276 5.276 0 0 0 -.8.247c-.209-.392-3.217.375-3.217.375-.032 0 .034 1.648.307 1.593a13.745 13.745 0 0 0 -2.2 2.559.9.9 0 0 0 -.984-.022c-.1.071-.2.135-.309.2-.061.035-.273.1-.315.158-.054.019-.113.038-.17.058-.113.039-.232.071-.347.1s-.238.055-.36.077c-.035.006-.074.01-.112.016.01 0 .016 0 .022-.006-.029.006-.061.009-.08.012a7.342 7.342 0 0 1 -.756.045 24.059 24.059 0 0 1 -2.5-.151.32.32 0 0 1 -.019-.035.7.7 0 0 0 -.032-.067s0-.006 0-.01c-.032-.09-.065-.177-.09-.27a4 4 0 0 1 -.122-.544c0-.029 0-.087 0-.1a.587.587 0 0 1 0 .061c0-.016 0-.029 0-.038-.009-.1-.016-.2-.022-.3a7.018 7.018 0 0 1 .029-1.038s0-.009 0-.013v-.007l.01-.055c.016-.093.035-.186.055-.283.038-.18.083-.357.135-.534s.109-.35.177-.521a.225.225 0 0 0 .016-.045c.01-.016.013-.029.023-.045l.009-.029c.035-.067.068-.135.1-.206.081-.154.167-.309.26-.457.039-.064.081-.123.125-.183 0 0 .006-.01.01-.013s.006-.01.009-.013c.007 0 .007-.006.007-.006s.006-.006.009-.01a6.339 6.339 0 0 1 .6-.64c.1-.09.2-.174.305-.257a.087.087 0 0 0 .026-.022l.029-.019c.08-.055.158-.109.238-.161.157-.1.322-.2.489-.283.09-.048.183-.093.276-.135a.032.032 0 0 1 .016-.006.024.024 0 0 0 .01 0 .166.166 0 0 1 .022-.009s.006 0 .009-.006a.193.193 0 0 0 .029-.013s0 0 .006 0c.042-.016.084-.032.129-.045.016.164.042.328.074.492a.968.968 0 0 0 1.187.672.99.99 0 0 0 .675-1.186c-.009-.035-.016-.074-.022-.11a.421.421 0 0 1 -.007-.048c0-.042 0-.077 0-.09-.016-.206-.022-.415-.022-.62q0-.347.029-.694c.01-.122.019-.241.032-.363a.1.1 0 0 1 0-.019c0-.006 0-.01 0-.016s0 0 0 0a.058.058 0 0 1 0-.022s0 0 0 0a.082.082 0 0 1 0-.029.087.087 0 0 0 0-.026c0-.019.006-.039.01-.052a7.9 7.9 0 0 1 .408-1.585l.035-.087a.022.022 0 0 1 .006-.016.016.016 0 0 1 .006-.013.13.13 0 0 1 .009-.032c0-.006.006-.009.006-.013.061-.125.125-.254.193-.376s.128-.213.2-.315a.161.161 0 0 0 .022-.032.061.061 0 0 0 .016-.023c.006-.006.009-.009.009-.016.022-.026.045-.058.061-.074a3.419 3.419 0 0 1 .3-.306l.007-.006s.007 0 .012-.006l.006-.006s0 0 .007 0a.123.123 0 0 0 .029-.022c.045-.032.1-.074.11-.08.074-.048.148-.087.225-.129a.027.027 0 0 0 .01 0l.006-.006a.051.051 0 0 0 .019-.006.2.2 0 0 1 .035-.016.642.642 0 0 1 .087-.039c.08-.025.164-.048.247-.071a.872.872 0 0 0 .219-.087 28.036 28.036 0 0 0 4.708 6.569z" transform="translate(-180.079 -127.23)"/><path d="m318.623 206.023a13.576 13.576 0 0 0 -.472 1.283.936.936 0 0 0 -1.093.431 3.027 3.027 0 0 1 -.28.486c0 .006-.007.009-.009.016s-.007 0-.007.007-.013.016-.019.026 0 0 0 0a.049.049 0 0 0 -.012.016l-.006.007-.009.009s0 0 0 .006c-.025.029-.051.058-.074.087-.1.113-.209.219-.319.325-.054.048-.109.1-.167.144-.019.019-.041.039-.064.058s-.019.016-.029.022l-.042.032c-.007.006-.013.01-.016.017a.054.054 0 0 1 -.013.013c-.1.074-.216.138-.318.2a5.5 5.5 0 0 1 -.531.3c-.071.035-.148.071-.222.106l-.032.013s0 0-.006 0a.254.254 0 0 0 -.035.016.027.027 0 0 1 -.013 0 .027.027 0 0 0 -.013.006c-.006 0-.013 0-.016.006l-.058.019a7.943 7.943 0 0 1 -1.434.389c-.058.01-.116.016-.174.029h-.016a.013.013 0 0 1 -.01 0c-.144.016-.289.029-.431.042-.3.022-.608.032-.913.032-.081 0-.161 0-.242-.007a1.7 1.7 0 0 0 -.215-.013 7.306 7.306 0 0 1 0-.842c.007-.151.022-.3.035-.451v-.012l.009-.058c.017-.093.032-.186.055-.276a4.759 4.759 0 0 1 .148-.55c.029-.09.061-.18.1-.27a.166.166 0 0 1 .016-.042.165.165 0 0 0 .013-.025.312.312 0 0 1 .017-.035 3.372 3.372 0 0 1 .247-.444 1.706 1.706 0 0 0 .145-.2.425.425 0 0 1 .051-.061 6.681 6.681 0 0 1 .71-.7c.045-.038.09-.077.138-.115a.675.675 0 0 0 .122.045.794.794 0 0 0 .154.026h.032c.022 0 .045 0 .068.006 1.694.138 3.594.434 5.25-.119z" transform="translate(-178.459 -136.74)"/><path d="m386.407 291.582-50.633 1.235c4.752-2.794 9.553-7.636 14.756-16a43.994 43.994 0 0 0 2.282-4.277c4.73 4.139 9.942 4.229 15.865.277a37.953 37.953 0 0 0 16.45 17.71l.064.061a14.872 14.872 0 0 0 1.216.994z" transform="translate(-188.522 -164.078)"/></g><path d="m451.529 259.767a9.665 9.665 0 0 1 -3.415 4.923 8.432 8.432 0 0 0 1.09-5.512c-.888-5.7-7.855-10.684-15.232-15.961a129.51 129.51 0 0 1 -10.3-7.9l-.019-.016c-.013-.013-.025-.022-.038-.035l-.257-.26h-.035c-1.126-1.01-2.113-1.977-3.01-2.955-.019-.022-.042-.045-.064-.068a.041.041 0 0 0 -.016-.016l-.026-.032c-3.595-3.962-5.344-7.788-5.341-11.685a17.661 17.661 0 0 1 2.778-2.4 26.782 26.782 0 0 0 7.9-8.566c4.131 4.788 7.807 12.512 10.3 17.743a53.375 53.375 0 0 0 6.234 10.026c5.005 6.383 11.439 15.679 9.451 22.714z" fill="#d6dbe7" transform="translate(-221.026 -138.08)"/><path d="m317.746 213.724c-.447 3.209-.875 4.987-2.859 7.4a40.87 40.87 0 0 1 -7.332 6.611c-1.154.859-3.19 2.3-5.765 4.122-2.99 2.113-6.714 4.746-10.707 7.64a21.537 21.537 0 0 0 -8.827 16.849v.376c-14.936-12.611 7.942-26.132 17.752-40.707.939-1.759 2.325-6.8 3.335-10.6.025-.016.051-.038.077-.058a4.634 4.634 0 0 0 1.334-1.627 1.047 1.047 0 0 0 .1-.743 1 1 0 0 0 -.444-.576 1.288 1.288 0 0 0 -.228-.087 13.628 13.628 0 0 1 .472-1.283 4.744 4.744 0 0 0 1.193-.595.984.984 0 0 0 .348-1.318 1.091 1.091 0 0 0 -.337-.325 13.686 13.686 0 0 1 2.2-2.559c.781-.164 1.547-.389 2.315-.6a.974.974 0 0 0 .672-1.186.829.829 0 0 0 -.077-.177 5.216 5.216 0 0 1 .8-.248h.006c.1.107.2.209.306.312-.013.058-.029.116-.042.17-.1.379-.19.711-.27 1.007a6.083 6.083 0 0 0 -.348 3.167c.361 1.726 2.717 5.669 4.788 8.479 1.859 2.518 1.955 3.553 1.538 6.556z" fill="#d6dbe7" transform="translate(-164.506 -131.812)"/><g fill="#7f95ae"><path d="m383.027 185.775a14.981 14.981 0 0 1 -1.807-.12l-.229-.031-.044-.006-.292-.044a16.408 16.408 0 0 1 -2.012-.4l-.594-.151-.193-.065h-.007l-.188-.065c-1.052-.368-2.188-.83-3.472-1.413l-.078-.038.524-1.048v-1.184h.278l.255.124c1.142.519 2.154.935 3.087 1.268l.206.072c.1.036.2.068.292.1l.5.124a14.192 14.192 0 0 0 1.748.348l.277.041.138.019h.231l.071.037a10.361 10.361 0 0 0 1.89.057c.16-.007.3-.016.444-.026l.047-.025h.2l.1-.056h.111a4.219 4.219 0 0 0 .525-.217l.25-.127a8.966 8.966 0 0 0 1.568-1.132l.1-.083c.415-.363.835-.762 1.281-1.183a30.667 30.667 0 0 1 5.991-4.669l.219-.262h.182l.117-.1h.123l.041-.022.065-.035c.418-.294.821-.565 1.222-.824l.169-.373.455-.027.145-.092c.325-.206.648-.4.971-.6.115-.071.242-.145.367-.219l.111-.067c.451-.272.907-.534 1.355-.789.077-.048.186-.112.3-.178.242-.136.472-.267.7-.4l.686-.389a37.081 37.081 0 0 0 5.244-3.431c.114-.092.212-.177.306-.263.213-.183.389-.351.557-.516a10.338 10.338 0 0 0 .848-.941l.027-.035.008-.009.181-.23a7.441 7.441 0 0 0 .968-1.734l.057-.155q.1-.269.18-.549c.025-.088.045-.162.063-.239l.058-.187c.054-.133.106-.263.154-.391.028-.072.055-.141.079-.212.091-.258.171-.5.237-.738l.059-.213c.027-.1.061-.241.088-.378.867-4.037-1.511-6.572-4.265-9.509l-.248-.264a25.726 25.726 0 0 1 -2.636-3.551 21.183 21.183 0 0 1 -2.6-6.07c-.636-2.46-1.54-4.2-2.419-4.644l1.07-2.1c1.56.8 2.781 2.866 3.63 6.154a18.828 18.828 0 0 0 2.311 5.4 23.746 23.746 0 0 0 2.367 3.2l.246.263c2.937 3.132 5.975 6.371 4.852 11.6-.034.166-.077.344-.124.525l-.067.242c-.074.263-.168.555-.274.854-.03.087-.067.184-.105.282q-.064.17-.137.349c-.021.088-.045.174-.071.263-.049.176-.1.354-.166.531l-.072.2a9.939 9.939 0 0 1 -1.484 2.657l-.128.157a12.565 12.565 0 0 1 -1.009 1.122c-.232.229-.448.433-.67.624-.1.093-.235.208-.372.32a39.016 39.016 0 0 1 -5.57 3.657l-.685.389c-.236.135-.471.27-.711.4-.087.05-.177.1-.266.157-.422.24-.822.471-1.216.706l-.254.152c-.113.067-.227.134-.34.2-.317.19-.625.379-.933.573l-.472.3-.135.085-.139.09c-.393.254-.789.521-1.2.813l-.247.143-.113.061-.221.242h-.207a28.124 28.124 0 0 0 -5.63 4.386c-.326.309-.64.605-.947.886v.651h-.745a10.01 10.01 0 0 1 -2.06 1.379l-.268.125c-.168.075-.346.144-.535.209l-.156.13-.333.006-.1.055h-.263c-.23.019-.46.035-.686.045s-.483.046-.737.046z" transform="translate(-204.278 -107.611)"/><path d="m412.733 134.051-1.489-1.319a.74.74 0 0 0 -.3-.131c-2.373-.535-4.831-2.222-7.208-3.855a24.968 24.968 0 0 0 -4.975-2.934h-.058l-.223-.1a9.123 9.123 0 0 0 -3.719-.51c-.665-.02-1.449-.043-2.4-.087-.107-.006-.172-.011-.24-.018a21.313 21.313 0 0 1 -2.192-.339 22.358 22.358 0 0 1 -2.5-.63 35.652 35.652 0 0 1 -3.777-1.347 9.866 9.866 0 0 1 -1.914-1.128l-.109-.078c-.029-.019-.06-.039-.091-.061l-.116-.092c-.174-.157-.793-.722-1.08-.994l-.134-.135a14.882 14.882 0 0 1 -2.634-3.561c-.042-.082-.091-.184-.135-.285a6.094 6.094 0 0 1 -.547-2.068l-.029-.029.045-1.043.13-.11a5 5 0 0 1 1.4-2.041l.072-.062c.094-.084.178-.153.265-.221a12.7 12.7 0 0 1 4.994-2.139 24.683 24.683 0 0 1 13.184.562c6.42 2.083 11.872 6.267 14.584 11.193l.2.383q.226.437.426.888a16.033 16.033 0 0 1 1 10.35zm-13.36-10.521a25.076 25.076 0 0 1 5.7 3.274 24.088 24.088 0 0 0 6.05 3.41 13.612 13.612 0 0 0 -1.1-7.488c-.117-.262-.24-.518-.371-.773l-.188-.358c-2.414-4.384-7.366-8.155-13.23-10.058a22.323 22.323 0 0 0 -11.926-.508 10.475 10.475 0 0 0 -4.062 1.69c-.065.052-.134.107-.2.166l-.069.062a2.661 2.661 0 0 0 -.74 1.1 3.565 3.565 0 0 0 .355 1.438c.029.065.058.124.088.184a12.543 12.543 0 0 0 2.216 2.976l.1.1c.221.21.707.653.935.86l.18.128a7.55 7.55 0 0 0 1.512.9 34.129 34.129 0 0 0 3.519 1.249 20 20 0 0 0 2.232.564c.714.136 1.447.269 1.965.307l.127.009c.942.044 1.713.067 2.367.087a11.679 11.679 0 0 1 4.349.6h.012z" transform="translate(-205.412 -96.495)"/><path d="m308.049 294.341 9.739-2.563c7.495-1.971 13.655-7.5 19.97-17.918.236-.448.5-.918.774-1.41.543-.97 1.1-1.973 1.586-3.044l.7-1.567 1.208 1.223c4.5 4.559 9.152 4.657 15.075.321l1.207-.884.576 1.381a35.886 35.886 0 0 0 16.516 18.04l.034.01.144.086-.071.117a14.538 14.538 0 0 0 3.528 2.24l4.576 2.123zm33.5-22.507c-.325.623-.657 1.216-.965 1.766-.27.483-.529.945-.759 1.385l-.036.064c-4.918 8.122-9.8 13.443-15.3 16.534l50.01-1.22q-.386-.307-.746-.636l-.047-.042a38.169 38.169 0 0 1 -16.406-17.571c-5.863 3.829-11.037 3.737-15.747-.28z" transform="translate(-177.128 -162.144)"/><path d="m442.09 267.07-.946-2.154a7.1 7.1 0 0 0 2.838-2.543l.054-.078a6.874 6.874 0 0 0 1.593-5.285c-.749-4.811-7.362-9.54-14.362-14.547-3.469-2.481-7.051-5.044-10.22-7.812h-.734v-.652c-1.136-1.024-2.139-2.013-3.055-3.012l-.134-.15c-4.044-4.455-5.972-8.869-5.856-13.453l.009-.378.227-.3a16.846 16.846 0 0 1 3.382-3.055 24.1 24.1 0 0 0 7.929-9.048l.743-1.49 1.158 1.2c4.376 4.523 8.127 12.016 11.6 19.3a51.3 51.3 0 0 0 5.984 9.623c5.3 6.749 12.091 16.644 9.836 24.62-1.159 4.079-4.536 7.179-10.046 9.214zm-19.754-34.423a128.581 128.581 0 0 0 10.3 7.9c7.415 5.3 14.418 10.313 15.319 16.1a8.376 8.376 0 0 1 -.636 4.677 9.083 9.083 0 0 0 2.542-4.113c1.473-5.211-1.609-12.578-9.422-22.523a53.607 53.607 0 0 1 -6.259-10.066c-2.445-5.138-6.036-12.687-10.071-17.468a27.033 27.033 0 0 1 -7.8 8.368 18.2 18.2 0 0 0 -2.692 2.308c.021 3.815 1.753 7.57 5.287 11.463l.036.041c.026.027.049.051.071.077.874.952 1.835 1.9 2.93 2.882h.038l.316.316z" transform="translate(-219.546 -135.543)"/></g><path d="m312.977 193.836c-.177.013-1.106.145-1.109.145l-.061.012a5.284 5.284 0 0 0 -1.548.622l-.1.061a13.667 13.667 0 0 0 -6.1 8.186c-.975 3.643-2.837 10.922-4.006 13.115-10.035 14.906-33.737 28.711-16.673 41.566" fill="none" stroke="#7f95ae" stroke-linecap="round" stroke-miterlimit="10" stroke-width="2.5" transform="translate(-164.52 -131.731)"/><g fill="#7f95ae"><path d="m431.212 158.414-1.485-3.208c2.208-1.022 2.376-5.317 2.26-6.741l3.522-.3c.028.329.618 7.972-4.297 10.249z" transform="translate(-227.135 -112.963)"/><path d="m388.523 250.1c-7.181-16.013.307-32 .629-32.669l2.125 1.017c-.074.155-7.329 15.692-.6 30.687z" transform="translate(-208.926 -141.427)"/><path d="m432.985 199.051-2.128-1.014c1.748-3.668 2.915-7.678 2.517-8.59a1.437 1.437 0 0 0 -.362.065l-.653-2.264a2.484 2.484 0 0 1 2.783.617c1.834 2.164-.898 8.543-2.157 11.186z" transform="translate(-227.599 -128.96)"/><path d="m379.455 225.557a6.788 6.788 0 0 1 -1.9-.271c-3.6-1.04-5.428-4.783-5.505-4.943a1.767 1.767 0 0 1 3.184-1.534c.03.059 1.262 2.5 3.317 3.085a4.244 4.244 0 0 0 3.483-.751 1.767 1.767 0 1 1 1.881 2.992 8.374 8.374 0 0 1 -4.46 1.422z" transform="translate(-203.361 -141.585)"/><path d="m323.929 179.486a5.03 5.03 0 0 0 -3.361 3.776 9.447 9.447 0 0 0 -.253 4.261 1.185 1.185 0 0 0 1.449.823 1.21 1.21 0 0 0 .823-1.45c-.009-.049-.016-.1-.026-.147-.035-.178.038.372.016.1-.009-.113-.02-.225-.025-.338-.014-.266-.013-.532 0-.8q.01-.223.029-.445c.008-.088.016-.176.026-.264.038-.331-.033.192 0-.023.052-.323.112-.643.2-.96q.064-.239.142-.475.045-.134.1-.266c.047-.121.138-.187-.012.022a5.1 5.1 0 0 0 .232-.465c.084-.149.178-.289.274-.429.138-.2-.181.2-.019.028.06-.065.117-.133.178-.2s.113-.1.168-.158c.2-.194-.191.122-.007 0 .131-.087.262-.163.4-.239.176-.1-.274.094.032-.012.088-.031.178-.055.269-.078a1.178 1.178 0 1 0 -.627-2.272z" transform="translate(-182.112 -125.818)"/><path d="m317.479 188.206a7.043 7.043 0 0 0 -4.979 3.494 7.878 7.878 0 0 0 -.892 3.32 5.448 5.448 0 0 0 .871 3.422 1.208 1.208 0 0 0 1.612.422 1.19 1.19 0 0 0 .423-1.612 3.333 3.333 0 0 1 -.2-.3s-.167-.327-.088-.145a3.447 3.447 0 0 1 -.2-.688c-.008-.041-.051-.375-.029-.165-.011-.1-.018-.2-.024-.3-.012-.212-.017-.425-.008-.637 0-.111.014-.221.024-.332.031-.359-.048.221.019-.14.043-.231.092-.461.156-.687.058-.209.127-.415.2-.618.031-.077.028-.074-.007.01.023-.053.047-.106.072-.158q.073-.155.156-.306c.1-.178.214-.343.326-.513-.143.216.012-.009.043-.046.058-.068.117-.134.178-.2q.193-.207.4-.394c.061-.055.127-.1.187-.16s.051-.042-.041.029c.041-.031.082-.062.124-.091a5.875 5.875 0 0 1 1.079-.616c-.2.087.141-.049.148-.051q.169-.059.34-.108a6.555 6.555 0 0 1 .729-.161 1.184 1.184 0 0 0 .823-1.45 1.211 1.211 0 0 0 -1.45-.822z" transform="translate(-178.588 -129.408)"/><path d="m310.975 202.073a12.331 12.331 0 0 0 -1.775 1.527 5.8 5.8 0 0 0 -1.222 2.168 7.622 7.622 0 0 0 -.311 2.409c.018.847.1 1.8.992 2.181a5.2 5.2 0 0 0 2.3.253 10.3 10.3 0 0 0 2.055-.3 7.543 7.543 0 0 0 2.823-1.423 9 9 0 0 0 1.6-1.768 1.182 1.182 0 0 0 -.422-1.612 1.212 1.212 0 0 0 -1.612.422c-.059.081-.12.161-.18.242-.154.208.141-.173.04-.052-.043.051-.084.1-.127.156a6.869 6.869 0 0 1 -.577.615c-.108.1-.222.193-.333.289-.151.129.211-.148 0 0-.086.059-.17.12-.258.177-.144.094-.293.18-.445.26q-.12.064-.243.122l-.108.05c-.242.113.168-.057.016-.008a10.672 10.672 0 0 1 -1.314.375c-.117.022-.234.041-.352.059.237-.035-.09.007-.166.014-.309.028-.619.042-.929.043-.145 0-.294-.015-.439-.007-.024 0-.251 0-.055.015a1.571 1.571 0 0 1 -.164-.03 1.991 1.991 0 0 0 -.2-.052c-.175-.017.529.5.518.573a1.044 1.044 0 0 1 -.039-.163c.006 0 .017.263.013.1-.006-.328-.034-.653-.023-.981.005-.15.017-.3.029-.449 0-.02.031-.229.006-.068.013-.084.028-.168.045-.252a5.722 5.722 0 0 1 .143-.559c.019-.062.04-.123.061-.184.126-.376-.039.066.052-.143a3.41 3.41 0 0 1 .226-.425c.041-.067.085-.133.13-.2.118-.171-.171.188.069-.089a7.091 7.091 0 0 1 .674-.676c.135-.12.275-.235.416-.348l.142-.112a1.756 1.756 0 0 1 .141-.11 1.21 1.21 0 0 0 .422-1.612 1.189 1.189 0 0 0 -1.612-.422z" transform="translate(-176.971 -135.043)"/><path d="m314 204.528c2.182.167 4.637.574 6.566-.75a1.178 1.178 0 0 0 -1.189-2.035 2.184 2.184 0 0 1 -.626.355c.3-.073-.072.021-.135.041q-.171.056-.346.1c-.117.028-.236.053-.355.074l-.18.028q.242-.033.039-.009c-.25.016-.5.036-.747.039-1.013.012-2.019-.12-3.027-.2a1.184 1.184 0 0 0 -1.178 1.178 1.207 1.207 0 0 0 1.178 1.179z" transform="translate(-179.088 -134.911)"/><path d="m330.731 161.585c-7.436-7.408-10.108-18.283-6.808-27.707 3.9-11.141 15.365-18.548 31.452-20.321l2-.22-.781 1.85a2.111 2.111 0 0 0 -.175.875l.031.032.044.79a6.353 6.353 0 0 0 2.5 3.966l3.066 2.636-3.8-.547c-4.9 2.9-25.922 16.423-18.43 30.355a1.581 1.581 0 0 1 .056 1.389 1.615 1.615 0 0 1 -1.083.92l-.589-2.281a.726.726 0 0 0 -.487.418.773.773 0 0 0 .027.67c-6.512-12.114 5.073-24.847 18.456-32.988a7.748 7.748 0 0 1 -2.024-3.965l-.048-.057v-.285l-.052-.052.017-.426a4.477 4.477 0 0 1 -.041-.544c-19.506 2.629-25.857 12.7-27.912 18.565-3 8.573-.55 18.487 6.247 25.259z" transform="translate(-183.079 -98.648)"/><path d="m373.075 174.11a.379.379 0 0 1 -.341-.213c-2.865-4.613-6.592-2.744-10.737-1.921 2.308-3.692 12.666-1.107 11.078 2.134z" transform="translate(-199.299 -122.004)"/><path d="m380.194 162.313c-2.7.207-3.873-1.649-4.38-3.451a39.413 39.413 0 0 0 6.227-1.1 2.7 2.7 0 0 1 -1.847 4.551z" transform="translate(-204.978 -116.906)"/><path d="m413.621 156.84c-3.661.633-5.417-1.961-5.621-3.023 2.486-.512 5.94-1.13 7.135-1.471.688 1.144 1.629 3.954-1.514 4.494z" transform="translate(-218.205 -114.68)"/><path d="m361.494 158.977c1.129 3.243 14.341-1.573 15.824-1.59-1.195-.116-13.883 2.27-15.824 1.59z" transform="translate(-199.093 -116.75)"/><path d="m369.781 167.687c-5.082-.3 5.635-.2 7.156-.5 1.663.404-5.468.549-7.156.5z" transform="translate(-201.941 -120.779)"/><path d="m413.372 151.213a.153.153 0 0 1 -.026.026 3.709 3.709 0 0 1 -1.064.492c-.1.039-.216.074-.335.113-.736.238-1.694.5-2.749.756-1.039.251-2.171.5-3.267.707-.366.071-.73.138-1.084.2a27.327 27.327 0 0 1 -3.64.446c-.662.016-1.061-.058-1.058-.25.045-.01 12.2-2.631 12.974-2.746a.882.882 0 0 1 .119.029.258.258 0 0 1 .055.016c.133.051.156.124.075.211z" transform="translate(-214.974 -114.109)"/><path d="m400.88 167.577c-3.5-3.463-4.824 3.409-3.746 1.549a2.347 2.347 0 0 1 .779-.831c2.352-1.455 2.812 1.176 2.017 2.937a1.677 1.677 0 0 0 1.5-1.106 2.328 2.328 0 0 0 -.55-2.549z" transform="translate(-213.589 -120.532)"/><path d="m361.807 152.689a39.668 39.668 0 0 1 4.044-1.366q2.044-.579 4.116-1.024a22.749 22.749 0 0 1 4.249-.649 9.739 9.739 0 0 1 1.113.025 5.425 5.425 0 0 1 1.11.227 4.325 4.325 0 0 1 1.857 1.158 5.626 5.626 0 0 0 -1.985-.555 5.433 5.433 0 0 0 -.993-.005c-.319.032-.661.09-1 .15-1.352.233-2.678.615-4.082.9q-2.075.433-4.177.739a39.558 39.558 0 0 1 -4.252.4z" transform="translate(-199.221 -113.571)"/><path d="m398.813 148.286a12.378 12.378 0 0 1 2.612-1.814 12.707 12.707 0 0 1 3.012-1.108 9.66 9.66 0 0 1 3.244-.19 7.137 7.137 0 0 1 3.032 1.069 22.06 22.06 0 0 0 -3.066-.058 19.229 19.229 0 0 0 -2.93.434c-.968.216-1.933.492-2.908.785s-1.954.627-2.996.882z" transform="translate(-214.43 -111.708)"/></g><path d="m427.43 153.174-.177-.187a24.153 24.153 0 0 1 -2.392-3.231 19.078 19.078 0 0 1 -2.338-5.46q-.279-1.081-.607-1.977c.151.1.3.209.453.312 2.36 1.62 4.8 3.3 7.138 3.823a.7.7 0 0 1 .084.025c.025 1.354-.103 5.155-2.161 6.695z" fill="#d6dbe7" opacity=".76" transform="translate(-223.925 -110.559)"/><path d="m412.805 131.873c-1.961-.492-4.19-2.023-6.347-3.5a35.255 35.255 0 0 0 -4.428-2.743c-.009 0-.019-.01-.029-.013a0 0 0 0 0 0 0 .01.01 0 0 1 -.006 0c-.032-.016-.068-.032-.1-.045a9.969 9.969 0 0 0 -1.071-.437l-.145-.068h-.029a11.429 11.429 0 0 0 -4.315-.6c-.653-.019-1.427-.042-2.354-.087-.038 0-.074 0-.112-.006l-.038-.006a19.993 19.993 0 0 1 -2-.312 20.861 20.861 0 0 1 -2.267-.572 34.031 34.031 0 0 1 -3.518-1.251 7.808 7.808 0 0 1 -1.55-.919l-.144-.1-.032-.022c-.219-.2-.73-.666-.965-.888l-.1-.1a12.779 12.779 0 0 1 -2.255-3.048c-.032-.061-.061-.122-.09-.19a3.669 3.669 0 0 1 -.373-1.56 2.792 2.792 0 0 1 .8-1.225l.087-.077c.061-.055.129-.11.2-.164 1.151-.907 3.691-2.064 9.264-2.424 6.849.084 16.277 4.1 20.277 11.373l.1.183c.032.058.061.113.094.174.125.244.247.5.373.782a13.809 13.809 0 0 1 1.073 7.845z" fill="#fff" transform="translate(-206.918 -97.9)"/><path d="m412.809 131.873a8.441 8.441 0 0 1 -1.157-.392 13.731 13.731 0 0 0 -1.238-5.592c-.125-.283-.247-.537-.373-.781-.032-.061-.061-.116-.093-.174l-.1-.183c-4-7.27-13.427-11.289-20.276-11.373-5.219.338-7.778 1.373-9.029 2.248-.006-.077-.006-.148-.006-.219a2.787 2.787 0 0 1 .8-1.225l.087-.077c.061-.055.129-.11.2-.164 1.151-.907 3.691-2.064 9.264-2.424 6.849.084 16.277 4.1 20.277 11.373l.1.183c.032.058.061.113.094.174.125.244.247.5.373.781a13.807 13.807 0 0 1 1.077 7.845z" fill="#d6dbe7" opacity=".76" transform="translate(-206.92 -97.9)"/><path d="m358.03 123.194a64.488 64.488 0 0 0 -13.045 10.286c-7.087 7.5-9.138 15-5.964 21.739a3.649 3.649 0 0 0 -2.083.637 2.651 2.651 0 0 0 -1.765.115 4.054 4.054 0 0 0 -2.023 2.717 10.921 10.921 0 0 0 -.283 1.142q-.087.458-.174.858a24.645 24.645 0 0 1 -5.261-24.379c2.08-5.939 8.521-16.148 28.331-18.739a3.837 3.837 0 0 0 0 .386l.071.791.048.392a7.681 7.681 0 0 0 2.148 4.055z" fill="#fff" transform="translate(-184.569 -100.388)"/><g fill="#7f95ae"><path d="m321.386 196c2.848.765 5.552-.253 8.268-1.026a1.178 1.178 0 0 0 -.627-2.272c-1.178.336-2.336.746-3.535 1.008a7.774 7.774 0 0 1 -1.651.22 5.5 5.5 0 0 1 -1.829-.2 1.178 1.178 0 0 0 -.626 2.272z" transform="translate(-182.258 -131.247)"/><path d="m368.544 198.629c-.393-2.222-4.05-4.844-4.455-4.881a.08.08 0 0 1 -.044-.039c-.2-.693 4.312 1.015 4.499 4.92z" transform="translate(-200.138 -131.617)"/><path d="m391.838 183.1c3.324-2.664 12.23-3.016 15.22-.436-4.023-1.281-10.587-.819-15.22.436z" transform="translate(-211.563 -126.415)"/></g><g fill="#fff"><path d="m380.494 252.934c-5.55 3.83-10 3.711-14.306-.369a60.7 60.7 0 0 0 3.717-10.894c.366-1.688.762-3.241 1.144-4.743.331-1.292.64-2.5.891-3.65a29.175 29.175 0 0 0 .563-3.334 22.638 22.638 0 0 0 .042-3.64 7.193 7.193 0 0 0 2.891 1.708 6.014 6.014 0 0 0 1.666.234 6.576 6.576 0 0 0 2.016-.327c-1.544 6.081-2.631 15.504 1.376 25.015z" transform="translate(-201.022 -145.075)"/><path d="m413.468 301.591.624 6.856a134.144 134.144 0 0 1 -.092 25.353l-.527 5.336a2.181 2.181 0 0 1 -2.179 2.179h-153.57a2.181 2.181 0 0 1 -2.179-2.179l-.306-4.738a213.705 213.705 0 0 1 -.08-26.189l.386-6.62a2.185 2.185 0 0 1 2.179-2.179h153.565a2.186 2.186 0 0 1 2.179 2.181z" transform="translate(-155.243 -175.12)"/><path d="m478.179 374.588.049.024z" transform="translate(-247.047 -206.015)"/><path d="m294.454 374.588.049.024z" transform="translate(-171.541 -206.015)"/></g><path d="m410.185 341.94h-153.564a4.247 4.247 0 0 1 -4.241-4.164l-.3-4.682a216.655 216.655 0 0 1 -.08-26.442l.383-6.57a4.246 4.246 0 0 1 4.241-4.17h153.561a4.246 4.246 0 0 1 4.239 4.132l.617 6.779a136.533 136.533 0 0 1 -.1 25.743l-.52 5.252a4.246 4.246 0 0 1 -4.236 4.122zm-153.564-41.905a.124.124 0 0 0 -.118.117v.12l-.386 6.62a212.393 212.393 0 0 0 .08 25.937l.309 4.87a.12.12 0 0 0 .118.118h153.561a.119.119 0 0 0 .117-.118l.009-.2.528-5.337a132.339 132.339 0 0 0 .1-24.964l-.633-7.044a.126.126 0 0 0 -.117-.117z" fill="#7f95ae" transform="translate(-153.943 -173.682)"/><path d="m413.41 302.461.719 7.949a124.614 124.614 0 0 1 -.2 24.5l-.437 4.534c.081 1.943-.755 2.135-1.987 2.087h-150.272c-.555-.048-1.232 0-1.494-.739a7.6 7.6 0 0 1 -.176-2.018c62.376 1.3 104.66 1.147 130.561-2.2a25.5 25.5 0 0 0 5.821-1.426c18.996-7.248 17.465-32.687 17.465-32.687z" fill="#d6dbe7" transform="translate(-157.202 -176.373)"/><path d="m389.443 336.371c3.931 0 3.938-6.109 0-6.109s-3.938 6.109 0 6.109z" fill="#dbdcde" transform="translate(-209.366 -187.799)"/><path d="m411 336.742c3.931 0 3.938-6.109 0-6.109s-3.938 6.109 0 6.109z" fill="#c2c4c6" transform="translate(-218.225 -187.951)"/><path d="m367.737 336.371c3.931 0 3.938-6.109 0-6.109s-3.938 6.109 0 6.109z" fill="#ebecec" transform="translate(-200.445 -187.799)"/><path d="m338.821 212.646a47.7 47.7 0 0 1 -1.4 6.707c-.386 1.515-.788 3.084-1.157 4.8a62.853 62.853 0 0 1 -4.4 12.273c-.335.643-.681 1.264-1.02 1.871-.276.492-.537.958-.775 1.412-6.347 10.476-11.735 16.9-19.288 18.891l-6.214.55c-1.695.145-3.428.187-5.228.19h-.045a14.87 14.87 0 0 1 -6.646-1.273c-2.486-1.5-3.678-3.319-3.647-5.576a19.527 19.527 0 0 1 8.007-15.273c3.987-2.887 7.7-5.514 10.688-7.627 2.589-1.83 4.633-3.277 5.81-4.151a42.647 42.647 0 0 0 7.672-6.939c2.38-2.894 2.846-5.2 3.29-8.382.45-3.241.4-4.875-1.9-8-2.074-2.813-4.19-6.489-4.447-7.71a4.378 4.378 0 0 1 .319-2.244c.084-.3.177-.64.28-1.032.18-.7.457-1.814.768-3.405a9 9 0 0 1 .231-.929 2.632 2.632 0 0 1 .862-1.463c-.547 2.528-.964 5.325-.411 6.283a.958.958 0 0 0 .836.485.981.981 0 0 0 .482-.128.966.966 0 0 0 .379-1.27s0-.01-.007-.013c-.18-.6.231-3.286.749-5.6a1.635 1.635 0 0 1 1.151-.36 1.208 1.208 0 0 1 .7.669c-.489 1.483-1.367 4.608-.7 6.126a.969.969 0 0 0 .884.578.92.92 0 0 0 .386-.084.964.964 0 0 0 .5-1.27c-.318-.72.216-3.193.907-5.168a1.147 1.147 0 0 0 .074-.141c.081-.187.309-.621.6-.6.611.042 1.135 1.4.932 4.341a5.072 5.072 0 0 0 3.852 5.491c3.1 1.9 4.964 4 5.861 6.611a12.76 12.76 0 0 1 .576 2.473c.048.353.087.73.119 1.132.048.582.109 1.17.167 1.765a29.468 29.468 0 0 1 .203 5.99z" fill="#fff" transform="translate(-169.3 -127.984)"/><path d="m373.564 221.2a1.765 1.765 0 0 1 -1.767-1.765 1.767 1.767 0 1 1 1.767 1.769z" fill="#3d2a6c" transform="translate(-203.327 -141.523)"/><g fill="#7f95ae"><path d="m297.778 260c-3.169 0-6.138-.607-7.76-1.587-2.631-1.583-4.174-3.608-4.584-6.016a7.972 7.972 0 0 1 -.11-1.438 21.721 21.721 0 0 1 8.905-17c3.98-2.885 7.692-5.509 10.674-7.618 2.591-1.831 4.637-3.279 5.794-4.143a40.727 40.727 0 0 0 7.3-6.576c1.953-2.378 2.374-4.134 2.817-7.309.416-2.988.329-3.938-1.5-6.42-1.761-2.387-4.422-6.622-4.822-8.555a6.21 6.21 0 0 1 .351-3.257c.081-.292.171-.621.27-1 .173-.67.439-1.746.74-3.276a10.293 10.293 0 0 1 .29-1.162 4.213 4.213 0 0 1 2.122-2.831 2.823 2.823 0 0 1 1.814-.146 3.511 3.511 0 0 1 2.669-.55 2.929 2.929 0 0 1 1.224.625 2.511 2.511 0 0 1 1.782-.573c1.543.109 3.3 1.352 2.938 6.652a2.845 2.845 0 0 0 1.834 3.1 11.454 11.454 0 0 1 2.151 1.151 14.08 14.08 0 0 1 5.616 6.993 15 15 0 0 1 .673 2.886c.058.41.1.835.134 1.261.024.305.055.619.085.935l.079.794a30.879 30.879 0 0 1 .2 6.417 49.048 49.048 0 0 1 -1.455 7.014c-.383 1.5-.78 3.049-1.143 4.733a61.776 61.776 0 0 1 -3.987 11.508 48.006 48.006 0 0 1 -2.866 5.528c-6.244 10.035-12.144 15.612-19.127 18.082a38.744 38.744 0 0 1 -13.054 1.778zm21.6-76.064a.4.4 0 0 0 -.161.031c-.107.048-.486.287-.823 1.38a7.847 7.847 0 0 0 -.226.908c-.314 1.594-.591 2.714-.772 3.418-.1.395-.2.733-.279 1.033a4.233 4.233 0 0 0 -.316 2.153c.225 1.086 2.159 4.583 4.412 7.638 2.346 3.19 2.391 4.848 1.932 8.142-.448 3.218-.922 5.547-3.33 8.478a42.763 42.763 0 0 1 -7.707 6.968c-1.18.882-3.238 2.337-5.843 4.18-2.978 2.105-6.683 4.725-10.652 7.6a19.329 19.329 0 0 0 -7.932 15.124 5.592 5.592 0 0 0 .077 1.014c.293 1.722 1.431 3.16 3.478 4.391a14.6 14.6 0 0 0 6.546 1.249h.047a36.631 36.631 0 0 0 12.271-1.643c6.446-2.28 11.971-7.556 17.915-17.107a46.61 46.61 0 0 0 2.717-5.249 60.16 60.16 0 0 0 3.833-11.04c.373-1.725.775-3.3 1.163-4.817a47.438 47.438 0 0 0 1.395-6.669 29.2 29.2 0 0 0 -.2-5.939l-.081-.808c-.032-.329-.063-.656-.089-.983q-.042-.573-.118-1.113a12.649 12.649 0 0 0 -.567-2.443 11.664 11.664 0 0 0 -4.736-5.83 9.148 9.148 0 0 0 -1.713-.91 5.2 5.2 0 0 1 -3.275-5.436c.2-2.962-.354-4.11-.753-4.138-.164.01-.352.346-.412.484a1.305 1.305 0 0 1 -1.162.785 1.271 1.271 0 0 1 -1.179-.712c-.253-.511-.5-.637-.63-.667a1.8 1.8 0 0 0 -1.243.5l-.569.428-.644-.3a.922.922 0 0 0 -.375-.102z" transform="translate(-167.789 -126.471)"/><path d="m348.585 191.732a1.178 1.178 0 0 1 -1.08-.705c-.812-1.853.5-5.8.928-6.962a1.178 1.178 0 1 1 2.214.8c-.7 1.931-1.276 4.546-.984 5.211a1.179 1.179 0 0 1 -1.079 1.652z" transform="translate(-193.238 -127.396)"/><path d="m342.427 191.331a1.177 1.177 0 0 1 -1.023-.591c-.535-.93-.323-3.459.631-7.517a1.178 1.178 0 0 1 2.294.54 24.253 24.253 0 0 0 -.846 5.872 1.179 1.179 0 0 1 -1.057 1.7z" transform="translate(-190.719 -126.996)"/></g><g fill="#c8cdd9"><path d="m485.249 143.689a26.309 26.309 0 0 0 .235 2.737 8.831 8.831 0 0 0 -3.528 1.865c-1.871 1.6-4.656-1.071-2.768-2.685a13.74 13.74 0 0 1 6-3.013c.026.357.045.723.061 1.096z" transform="translate(-247.203 -110.672)"/><path d="m501.4 148a10.144 10.144 0 0 0 -3.443-1.624 26.3 26.3 0 0 0 .232-2.714c.016-.408.038-.811.061-1.2a12.554 12.554 0 0 1 5.048 2.177c1.989 1.431.115 4.811-1.898 3.361z" transform="translate(-255.174 -110.615)"/><path d="m481.073 134.257a18.135 18.135 0 0 0 -9.09 3.569c-1.98 1.5-3.955-1.817-2-3.3a20.957 20.957 0 0 1 10.891-4.132 34.826 34.826 0 0 0 .199 3.863z" transform="translate(-243.348 -105.657)"/><path d="m505.876 136.552a26.845 26.845 0 0 0 -7.007-2.055 36.543 36.543 0 0 0 .2-3.826 32.472 32.472 0 0 1 8.7 2.52c2.271 1.009.362 4.364-1.893 3.361z" transform="translate(-255.551 -105.772)"/><path d="m491.414 160.8c2.449 1.261 4.413-2.542 1.96-3.806s-4.414 2.543-1.96 3.806z" transform="translate(-252.023 -116.487)"/><path d="m494.45 132.1c-.006.123-.019.244-.029.366-.074.846-.154 1.765-.215 2.727-.026.434-.052.878-.068 1.325-.038.948-.109 1.8-.212 2.537a11.041 11.041 0 0 1 -.479 2.135.529.529 0 0 1 -.521.309.535.535 0 0 1 -.527-.312 11.129 11.129 0 0 1 -.479-2.135c-.1-.746-.174-1.6-.213-2.559-.016-.425-.038-.846-.067-1.258-.061-1-.148-1.961-.222-2.839-.01-.125-.022-.247-.032-.369a32.9 32.9 0 0 1 -.186-3.846c.061-1.6.444-2.582 1.486-2.923l.141-.048.013-.01a.665.665 0 0 1 .148.019l.164.039c.026.009.055.016.087.029l.016.006.084.035c.919.4 1.254 1.38 1.3 2.952a34.936 34.936 0 0 1 -.189 3.82z" transform="translate(-252.395 -103.521)"/></g><path d="m389.412 287.851h-6.884a37.233 37.233 0 0 1 -3.717-4.716 7.249 7.249 0 0 0 -8-2.97c-3.532 1.017-9.854-1.866-9.854-1.866.569-.913 1.172-2.074 1.8-3.338.161-.3.361-.608.522-.923 4.739 4.167 9.925 4.267 15.864.309a37.658 37.658 0 0 0 10.269 13.504z" fill="#dfe3ee" transform="translate(-198.872 -164.692)"/><path d="m384.793 219.445c-.26.676-.562 1.524-.871 2.518a4.887 4.887 0 0 1 -3.817.649 7.133 7.133 0 0 1 -3.759-3.408c-.032-.309-.061-.621-.083-.923-.016-.2-.036-.405-.055-.608.852.367 1.64.676 2.383.936l.154.055h.006c.077.025.151.051.225.074l.582.148a16.58 16.58 0 0 0 2 .4l.247.039.145.019.157.022a15.132 15.132 0 0 0 1.782.119c.25 0 .488-.01.71-.026.062-.004.126-.008.194-.014z" fill="#dfe3ee" transform="translate(-205.14 -141.528)"/><path d="m317.724 92.951c.779.2.827 1.268.668 1.9a3.4 3.4 0 0 1 -1.51 2.013 4.635 4.635 0 0 1 -2.925.584c-.782-.078-2.037-.283-2.5-1.012-.16-.25-.037-.461.227-.571a1.782 1.782 0 0 1 1.369.273 16.364 16.364 0 0 1 2.614 1.6 16.087 16.087 0 0 1 2.149 1.954 11.55 11.55 0 0 1 .924 1.1 1.2 1.2 0 0 1 .2 1.2 10.11 10.11 0 0 1 -.719 1.392 4.387 4.387 0 0 0 -.509 1.577 3.846 3.846 0 0 0 1.013 2.983c.553.6 1.449-.3.9-.9a2.574 2.574 0 0 1 -.362-2.909c.507-1.014 1.329-2.067.945-3.269a4.88 4.88 0 0 0 -1.051-1.574 16.728 16.728 0 0 0 -1.289-1.352 17.562 17.562 0 0 0 -3-2.265c-.994-.594-2.317-1.44-3.52-1.04a1.662 1.662 0 0 0 -.76 2.74 5.1 5.1 0 0 0 3.373 1.339 5.717 5.717 0 0 0 3.665-.822 4.615 4.615 0 0 0 2.062-3.049c.19-1.245-.262-2.777-1.623-3.122a.636.636 0 0 0 -.337 1.225z" fill="#d6dbe7" transform="translate(-177.985 -89.757)"/><path d="m332.545 128.325c.26.016-3.962 1.223-6.424 2.836.945 1.552 8.422 1.559 6.424-2.836z" fill="#7f95ae" transform="translate(-184.555 -104.808)"/><path d="m334.467 122.85c-2.916-.049 2.187 9.992 2.794 3.35.097-1.109-2.237-.966-2.794-3.35z" fill="#7f95ae" transform="translate(-187.618 -102.558)"/><g fill="#d4d9e5"><path d="m570.833 214.494a4.485 4.485 0 0 1 .014.616c-.005.1-.015.193-.024.289-.013.134.039-.213 0 .017-.009.047-.017.1-.027.143a5.505 5.505 0 0 1 -.156.6c-.03.092-.062.184-.1.275-.016.044-.034.086-.05.13-.039.108.093-.2.008-.02-.068.145-.139.288-.221.426-.046.077-.095.153-.147.226-.015.021-.1.133-.019.03s-.007.005-.024.025a2.532 2.532 0 0 1 -.182.191c-.028.027-.058.052-.086.078-.09.081 0-.021.042-.031a1.315 1.315 0 0 0 -.22.138c-.026.014-.147.063-.025.018.14-.051-.044.015-.058.019a.884.884 0 1 0 .47 1.7 3.465 3.465 0 0 0 1.97-1.876 5.909 5.909 0 0 0 .6-2.995.9.9 0 0 0 -.884-.884.893.893 0 0 0 -.884.884z" opacity=".81" transform="translate(-284.332 -139.858)"/><path d="m582.825 215.287a10.76 10.76 0 0 0 7.282-3.271c.787-.821-.461-2.073-1.249-1.249a8.964 8.964 0 0 1 -6.033 2.754.884.884 0 0 0 0 1.767z" opacity=".81" transform="translate(-289.691 -138.579)"/><path d="m544.853 209.007a8.352 8.352 0 0 0 -2.153 6.5.906.906 0 0 0 .883.884c.434-.019.941-.392.884-.884a7.417 7.417 0 0 1 -.024-1.495c0-.052.041-.339.024-.23q.028-.185.065-.369a7.534 7.534 0 0 1 .2-.77 6.637 6.637 0 0 1 1.371-2.387.9.9 0 0 0 0-1.249.893.893 0 0 0 -1.249 0z" opacity=".81" transform="translate(-273.542 -137.861)"/></g><path d="m323.148 301.255h-2.935c-10.013 10.125-26.763 8.565-30.813 6.212a8.278 8.278 0 0 1 -4.272-6.181l-.818-.031c.445 9.714 9.5 11.077 18.194 9.747a40.008 40.008 0 0 0 18.385-8z" fill="#3f2470" opacity=".13" transform="translate(-167.372 -175.878)"/></svg>