<svg enable-background="new 0 0 32 32" viewBox="0 0 32 32" xmlns="http://www.w3.org/2000/svg"><path d="m0 0h32v32h-32z" fill="none"/><g fill="#610ac3"><path d="m6.6 14.5h3.7v9.4h-3.7z" opacity=".21"/><path d="m14.1 14.5h3.7v9.4h-3.7z" opacity=".21"/><path d="m21.6 14.5h3.7v9.4h-3.7z" opacity=".21"/></g><path d="m26.38 14.75c.77002.09998 1.52002-.42999 1.76001-1.27002.23999-.75-.04003-1.53998-.70001-1.97998l-10.38-7.29999c-.59003-.46002-1.40997-.47003-2.09998 0l-10.40002 7.28998c-.65998.45001-.95001 1.23999-.70001 1.97998.22003.78003.90002 1.28003 1.73999 1.28003h.15002v8.59998h-.15002c-.90997 0-1.64996.69-1.64996 1.55005v1.69995c0 .81.78998 1.55005 1.64996 1.55005h20.80005c.90997 0 1.64996-.69 1.64996-1.55005v-1.69995c0-.81-.78998-1.55005-1.64996-1.55005h-.15003v-8.59998zm-18.83001 8.40002v-7.60004h2v7.60004zm3.70001.19996v-8.59998h2v8.59998zm3.79999-.19996v-7.60004h2v7.60004zm3.70001.19996v-8.59998h2v8.59998zm3.70001-.19996v-7.60004h2v7.60004zm-16.85003 1.54999c-.09998.09998-.09998 0 0 0zm20.65002.25v1.39996h-20.48999l.08002-1.39996zm-20.64001-11.90002c-.01996 0-.03998-.01001-.06-.01996l10.42999-7.35004c.03003.02002.07001.03998.12.06l10.35003 7.26001v.03003c-.02002.00995-.04004.01996-.04999.01996z" fill="#5c2d91"/><path d="m5.59998 24.70001c-.09998 0-.09998.09998 0 0zm0 0c-.09998 0-.09998.09998 0 0zm0 0c-.09998 0-.09998.09998 0 0zm0 0c-.09998 0-.09998.09998 0 0zm0 0c-.09998 0-.09998.09998 0 0zm0 0c-.09998 0-.09998.09998 0 0zm0 0c-.09998 0-.09998.09998 0 0z" fill="#5c2d91"/></svg>