<svg enable-background="new 0 0 32 32" viewBox="0 0 32 32" xmlns="http://www.w3.org/2000/svg"><path d="m0 0h32v32h-32z" fill="none"/><path d="m7.95651 11.78885c0-.50509.42091-.92599 1.01017-.92599h14.64749v-2.35707c0-.50509-.4209-.92599-1.01017-.92599h-17.08874c-.50509 0-1.01017.4209-1.01017.92599v11.53279c0 .50509.42091.92599 1.01017.92599h2.44125z" fill="#610ac3" opacity=".2"/><path d="m26.40002 10.08002h-1.48004v-1.57001c0-1.03003-.90997-1.90002-1.97998-1.90002l-17.31.01001c-.48999-.04999-.97998.13-1.35998.47998-.41003.36004-.65002.88-.65002 1.41003v11.60999c0 1.03003.91003 1.89001 1.97998 1.89001h1.48004v1.47998c0 1.03003.90997 1.89001 1.97998 1.89001h17.32c.01001 0 .02997.01001.04999.01001.03003 0 .06.01001.09003.01001.44 0 .88-.18005 1.20996-.5.41003-.36005.65002-.88.65002-1.41003v-11.52997c0-1.02002-.91003-1.88-1.97998-1.88zm-17.32 4.69.02997-2.77002h17.26001v11.46002l-17.27997-.01001v-8.54004c0-.05999 0-.10998-.01001-.13995zm0-4.87c-.48999-.04004-.98004.13-1.36005.47998-.40997.35999-.63995.88-.63995 1.40997v8.21003h-1.45002l.01001-11.46002 17.26996.01001v1.35004h-13.82995z" fill="#5c2d91"/><g fill="#610ac3"><path d="m17.88986 19.02841c0 .92599.33672 1.7678.92599 2.35707-.58927.67345-1.51526 1.09435-2.44125 1.09435-1.93616 0-3.45142-1.51526-3.45142-3.45142s1.51526-3.45142 3.45142-3.45142c1.01017 0 1.85198.42091 2.44125 1.09435-.58926.58927-.92599 1.43108-.92599 2.35707z" opacity=".1"/><path d="m24.7927 19.02841c0 1.93616-1.51526 3.45142-3.45142 3.45142-1.01017 0-1.85198-.4209-2.52543-1.09435-.58927-.58927-.92599-1.43108-.92599-2.35707s.33672-1.7678.92599-2.35707c.58927-.67345 1.51526-1.09435 2.52543-1.09435 1.93616 0 3.45142 1.51526 3.45142 3.45142z" opacity=".2"/></g></svg>